<svg width="32" height="32" viewBox="0 0 32 32" fill="none" xmlns="http://www.w3.org/2000/svg">
<circle cx="16" cy="16" r="16" fill="#6423FF"/>
<path d="M23.3486 24.7999H10.0658C9.28576 24.7999 8.89088 24.1209 8.8139 23.3418C8.79494 23.1499 8.79527 22.9519 8.8139 22.7564V7.3999H23.3486V21.0648V24.7999Z" fill="#6423FF"/>
<path d="M23.3486 21.0648C23.3486 15.7283 23.3486 12.7364 23.3486 7.3999H8.8139V23.3418M23.3486 21.0648V24.7999C23.3486 24.7999 11.8951 24.7999 10.0658 24.7999C9.28576 24.7999 8.89088 24.1209 8.8139 23.3418M23.3486 21.0648C23.3486 21.0648 11.6061 21.0648 10.0658 21.0648C9.18218 21.0648 8.71035 22.2938 8.8139 23.3418M22.193 22.8868H10.0658M17.9579 10.3151L14.3003 17.8763" stroke="white" stroke-linecap="round"/>
<path d="M13.7224 12.228L11.7974 14.05L13.7224 15.9631" stroke="white" stroke-linecap="round"/>
<path d="M18.7278 15.9629L20.6528 14.1409L18.7278 12.2278" stroke="white" stroke-linecap="round"/>
</svg>
