<svg width="196" height="73" viewBox="0 0 196 73" fill="none" xmlns="http://www.w3.org/2000/svg">
<path d="M190.839 29.9816C190.839 43.8129 178.997 55.1295 164.524 55.1295H31.9578C17.485 55.1295 5.64325 43.8129 5.64325 29.9816C5.64325 16.1503 17.4839 4.83383 31.9578 4.83383H164.524C178.997 4.83499 190.839 16.1515 190.839 29.9816Z" fill="#FBC82F"/>
<path d="M55.6552 26.5021L60.3202 15.9271H61.3702L66.0352 26.5021H64.7602L63.5902 23.8021H58.0852L56.9302 26.5021H55.6552ZM60.8302 17.3671L58.5352 22.7671H63.1552L60.8602 17.3671H60.8302ZM67.603 26.5021V15.9271H71.788C72.928 15.9271 73.798 16.2021 74.398 16.7521C75.008 17.3021 75.313 18.0871 75.313 19.1071C75.313 20.1171 75.008 20.9021 74.398 21.4621C73.798 22.0121 72.928 22.2871 71.788 22.2871H68.833V26.5021H67.603ZM68.833 21.2521H71.638C73.278 21.2521 74.098 20.5371 74.098 19.1071C74.098 17.6671 73.278 16.9471 71.638 16.9471H68.833V21.2521ZM77.0952 26.5021V15.9271H81.2802C82.4202 15.9271 83.2902 16.2021 83.8902 16.7521C84.5002 17.3021 84.8052 18.0871 84.8052 19.1071C84.8052 20.1171 84.5002 20.9021 83.8902 21.4621C83.2902 22.0121 82.4202 22.2871 81.2802 22.2871H78.3252V26.5021H77.0952ZM78.3252 21.2521H81.1302C82.7702 21.2521 83.5902 20.5371 83.5902 19.1071C83.5902 17.6671 82.7702 16.9471 81.1302 16.9471H78.3252V21.2521ZM86.5874 26.5021V15.9271H87.8174V25.4221H93.2024V26.5021H86.5874ZM95.5387 26.5021V21.4921L91.4887 15.9271H92.9287L96.1837 20.4121L99.4237 15.9271H100.819L96.7687 21.5221V26.5021H95.5387ZM105.777 26.5021V15.9271H106.737L113.112 24.4321V15.9271H114.252V26.5021H113.322L106.932 17.9671V26.5021H105.777ZM121.32 26.6371C120.34 26.6371 119.485 26.4171 118.755 25.9771C118.035 25.5271 117.475 24.8971 117.075 24.0871C116.685 23.2771 116.49 22.3171 116.49 21.2071C116.49 20.0971 116.685 19.1371 117.075 18.3271C117.465 17.5171 118.02 16.8921 118.74 16.4521C119.47 16.0121 120.33 15.7921 121.32 15.7921C122.32 15.7921 123.18 16.0121 123.9 16.4521C124.63 16.8921 125.19 17.5171 125.58 18.3271C125.98 19.1271 126.18 20.0821 126.18 21.1921C126.18 22.3021 125.98 23.2671 125.58 24.0871C125.18 24.8971 124.615 25.5271 123.885 25.9771C123.165 26.4171 122.31 26.6371 121.32 26.6371ZM121.32 25.5421C122.45 25.5421 123.325 25.1621 123.945 24.4021C124.565 23.6421 124.875 22.5771 124.875 21.2071C124.875 19.8371 124.565 18.7771 123.945 18.0271C123.325 17.2671 122.45 16.8871 121.32 16.8871C120.21 16.8871 119.345 17.2671 118.725 18.0271C118.105 18.7771 117.795 19.8371 117.795 21.2071C117.795 22.5671 118.105 23.6321 118.725 24.4021C119.345 25.1621 120.21 25.5421 121.32 25.5421ZM130.995 26.5021L127.29 15.9271H128.58L131.565 24.7021L134.625 15.9271H135.615L138.645 24.7771L141.69 15.9271H142.92L139.215 26.5021H138.12L135.105 17.8021L132.06 26.5021H130.995Z" fill="#202D73"/>
<path d="M5.95691 33.6471C7.83254 45.7526 18.79 55.1296 31.9577 55.1296H164.524C177.692 55.1296 188.649 45.7526 190.524 33.6471H5.95691Z" fill="#F5AA27"/>
<path d="M117.115 55.1296C117.115 64.8447 108.797 72.7946 98.6308 72.7946H97.8499C87.6827 72.7946 79.3656 64.8459 79.3656 55.1296C79.3656 45.4144 87.6827 37.4645 97.8499 37.4645H98.6308C108.797 37.4645 117.115 45.4144 117.115 55.1296Z" fill="#4D49BF"/>
<path d="M104.896 50.1559L89.6212 47.3169L92.459 62.5915L95.4747 55.9884L104.088 64.6019L106.906 61.7838L98.2928 53.1715L104.896 50.1559Z" fill="#F1F8F5"/>
<path d="M0.954204 25.8296H0.00012207C0.00012207 11.7008 12.0185 0.205322 26.7911 0.205322H68.2107V1.1594H26.79C12.5438 1.1594 0.954204 12.2261 0.954204 25.8296Z" fill="#F2B90C"/>
<path d="M168.795 60.6415H127.375V59.6862H168.795C183.042 59.6862 194.632 48.6196 194.632 35.0161H195.586C195.586 49.146 183.569 60.6415 168.795 60.6415Z" fill="#F2B90C"/>
</svg>
