<svg width="782" height="547" viewBox="0 0 782 547" fill="none" xmlns="http://www.w3.org/2000/svg">
<g clip-path="url(#clip0_770_5)">
<path d="M747.791 542.13C747.791 542.13 828.581 437.82 739.121 348.4C681.201 290.51 663.461 278.79 656.381 248.5C641.161 183.34 585.601 0.240234 423.971 0.240234C150.751 0.240234 128.171 281.09 128.171 281.09C128.171 281.09 49.9913 296.14 20.8813 399.71C-6.69872 497.85 32.4413 546.95 32.4413 546.95L747.791 542.13Z" fill="url(#paint0_linear_770_5)"/>
<path d="M480.88 98.5898C495.11 112.89 518.24 112.95 532.54 98.7198C546.84 84.4898 546.9 61.3698 532.67 47.0598C518.44 32.7598 495.31 32.6998 481.01 46.9298C466.71 61.1598 466.65 84.2898 480.88 98.5898Z" fill="url(#paint1_linear_770_5)"/>
<path d="M586.942 143.81L401.422 53.2803H400.542L215.022 143.81C215.022 143.81 213.342 225.4 218.932 269.54C225.142 318.58 249.112 413.15 304.432 469.59C359.752 526.03 400.542 534.41 400.542 534.41H401.422C401.422 534.41 442.212 526.03 497.532 469.59C552.852 413.15 576.822 318.58 583.032 269.54C588.622 225.39 586.942 143.81 586.942 143.81Z" fill="url(#paint2_linear_770_5)"/>
<path d="M554.943 162.061L399.363 86.1406H398.623L243.043 162.061C243.043 162.061 241.633 230.481 246.323 267.501C251.533 308.631 271.633 387.941 318.023 435.271C364.413 482.601 398.623 489.631 398.623 489.631H399.363C399.363 489.631 433.573 482.601 479.963 435.271C526.353 387.941 546.453 308.631 551.663 267.501C556.353 230.481 554.943 162.061 554.943 162.061Z" fill="url(#paint3_linear_770_5)"/>
<path d="M299.14 150.76C299.14 150.76 338.44 133.8 394.41 133.8C450.39 133.8 492.51 147.65 501.84 154.16C511.17 160.66 514 175.65 516.26 195.72C518.52 215.79 525.02 283.08 517.67 319.83C510.32 356.58 480.07 395.6 463.39 412.28C446.71 428.96 422.11 445.92 408.83 447.9C395.54 449.88 378.58 448.18 364.73 438.85C350.88 429.52 314.41 398.99 296.03 363.65C277.65 328.31 275.39 302.58 276.24 273.75C277.09 244.91 281.04 179.48 288.68 165.47C295.46 153.03 299.14 150.76 299.14 150.76Z" fill="url(#paint4_linear_770_5)"/>
<path d="M361.612 244.341C361.612 244.341 348.462 229.921 331.502 228.651C314.542 227.381 306.272 237.561 306.062 238.191C305.852 238.831 307.332 243.071 311.362 243.911C315.392 244.771 349.322 248.371 361.612 244.341Z" fill="url(#paint5_linear_770_5)"/>
<path d="M361.61 244.34C349.31 248.37 315.39 244.76 311.36 243.92C307.33 243.07 305.85 238.83 306.06 238.2C306.06 238.2 303.94 238.13 301.4 236.43C298.86 234.73 298.01 225.55 298.01 225.55C298.01 225.55 297.59 227.39 297.59 230.5C297.59 233.61 298.58 235.87 299 237.29C299.42 238.7 296.6 239.41 296.17 239.27C295.75 239.13 297.58 240.54 299.28 240.82C300.98 241.1 301.97 242.09 298.71 244.07C295.46 246.05 288.82 256.93 288.82 256.93C288.82 256.93 294.9 249.3 298.01 246.89C301.12 244.49 305.08 244.63 309.46 245.48C313.84 246.33 320.06 250.29 334.9 250.43C349.74 250.57 361.9 244.92 361.9 244.92L361.61 244.34Z" fill="#9200CD"/>
<path d="M373.491 223.14C373.491 223.14 368.191 222.29 361.401 218.05C354.611 213.81 335.961 201.51 324.511 199.6C313.061 197.69 302.461 200.02 296.101 204.69C289.741 209.35 288.891 211.05 288.891 211.05C288.891 211.05 295.681 193.45 314.971 191.97C334.261 190.49 354.831 196.85 368.191 205.54C381.551 214.23 377.521 222.5 373.491 223.14Z" fill="black"/>
<path d="M372.441 191.6L371.631 191.14C371.101 190.84 370.311 190.41 369.291 189.87C367.261 188.79 364.341 187.3 360.761 185.65C357.181 184.01 352.941 182.21 348.291 180.59C345.971 179.78 343.541 179 341.051 178.34C338.561 177.67 335.991 177.1 333.411 176.7C330.831 176.3 328.211 176.05 325.641 176.08C325.001 176.11 324.361 176.13 323.731 176.16C323.101 176.21 322.471 176.29 321.841 176.35C321.221 176.43 320.611 176.56 320.001 176.66C319.401 176.77 318.781 176.94 318.181 177.07C316.971 177.36 315.781 177.62 314.641 177.94C313.501 178.26 312.371 178.54 311.291 178.89C310.211 179.23 309.151 179.54 308.161 179.92C307.661 180.1 307.161 180.28 306.681 180.45C306.201 180.63 305.731 180.83 305.281 181.01C303.441 181.73 301.821 182.55 300.401 183.31C299.011 184.11 297.821 184.85 296.921 185.58C296.011 186.29 295.351 186.92 294.961 187.4C294.561 187.87 294.401 188.16 294.401 188.16C294.401 188.16 294.551 187.86 294.941 187.38C295.321 186.89 295.971 186.24 296.851 185.49C297.731 184.73 298.911 183.95 300.281 183.1C301.681 182.3 303.291 181.43 305.121 180.64C305.581 180.44 306.041 180.23 306.521 180.03C307.001 179.84 307.491 179.65 307.991 179.45C308.981 179.04 310.041 178.69 311.111 178.32C312.181 177.93 313.311 177.61 314.461 177.26C315.611 176.89 316.791 176.6 317.981 176.28C318.591 176.13 319.171 175.95 319.811 175.81C320.441 175.69 321.071 175.53 321.711 175.43C322.351 175.35 323.001 175.24 323.651 175.18C324.301 175.13 324.961 175.09 325.621 175.04C328.261 174.93 330.941 175.1 333.591 175.44C336.241 175.77 338.871 176.28 341.421 176.88C343.981 177.47 346.461 178.19 348.841 178.94C353.611 180.44 357.951 182.14 361.631 183.69C365.311 185.25 368.321 186.67 370.411 187.71C371.461 188.23 372.271 188.65 372.831 188.94C373.391 189.24 373.691 189.39 373.691 189.39C373.981 189.552 374.196 189.822 374.291 190.141C374.385 190.459 374.35 190.803 374.195 191.096C374.04 191.39 373.775 191.612 373.459 191.713C373.142 191.815 372.798 191.789 372.501 191.64C372.491 191.63 372.481 191.63 372.471 191.62L372.441 191.6ZM361.401 218.05C354.611 213.81 335.961 201.51 324.511 199.6C313.061 197.69 302.461 200.02 296.101 204.69C295.511 205.13 294.961 205.54 294.461 205.92C293.291 206.9 292.141 207.97 291.011 209.14C290.571 209.6 310.941 200.02 334.901 209.99C358.861 219.95 376.671 245.61 376.671 245.61C376.671 245.61 375.061 232.49 368.191 221.51C366.261 220.74 363.941 219.63 361.401 218.05Z" fill="#9200CD"/>
<path d="M436.672 244.341C436.672 244.341 449.822 229.921 466.782 228.651C483.742 227.381 492.012 237.561 492.222 238.191C492.432 238.831 490.952 243.071 486.922 243.911C482.902 244.771 448.972 248.371 436.672 244.341Z" fill="url(#paint6_linear_770_5)"/>
<path d="M436.671 244.34C448.971 248.37 482.891 244.76 486.921 243.92C490.951 243.07 492.431 238.83 492.221 238.2C492.221 238.2 494.341 238.13 496.881 236.43C499.421 234.73 500.271 225.55 500.271 225.55C500.271 225.55 500.691 227.39 500.691 230.5C500.691 233.61 499.701 235.87 499.271 237.29C498.851 238.7 501.671 239.41 502.101 239.27C502.521 239.13 500.691 240.54 498.991 240.82C497.301 241.1 496.301 242.09 499.551 244.07C502.801 246.05 509.451 256.93 509.451 256.93C509.451 256.93 503.371 249.3 500.261 246.89C497.151 244.49 493.191 244.63 488.811 245.48C484.431 246.33 478.211 250.29 463.371 250.43C448.531 250.57 436.371 244.92 436.371 244.92L436.671 244.34Z" fill="#2019DC"/>
<path d="M424.802 223.14C424.802 223.14 430.102 222.29 436.892 218.05C443.682 213.81 462.332 201.51 473.782 199.6C485.232 197.69 495.832 200.02 502.192 204.69C508.552 209.35 509.402 211.05 509.402 211.05C509.402 211.05 502.622 193.45 483.322 191.97C464.032 190.49 443.462 196.85 430.102 205.54C416.742 214.23 420.772 222.5 424.802 223.14Z" fill="black"/>
<path d="M424.601 189.38C424.601 189.38 424.901 189.22 425.461 188.93C426.021 188.64 426.831 188.22 427.881 187.7C429.971 186.67 432.981 185.24 436.661 183.68C440.341 182.13 444.681 180.43 449.451 178.93C451.831 178.18 454.311 177.46 456.871 176.87C459.431 176.27 462.051 175.77 464.701 175.43C467.351 175.1 470.031 174.92 472.671 175.03C473.331 175.08 473.991 175.12 474.641 175.17C475.291 175.24 475.941 175.34 476.581 175.42C477.221 175.52 477.851 175.67 478.481 175.8C479.121 175.94 479.701 176.12 480.311 176.27C481.511 176.59 482.691 176.89 483.831 177.25C484.981 177.6 486.111 177.92 487.181 178.31C488.261 178.68 489.311 179.03 490.301 179.44C490.801 179.64 491.291 179.83 491.771 180.02C492.251 180.22 492.711 180.43 493.171 180.63C495.001 181.41 496.611 182.29 498.011 183.09C499.381 183.94 500.561 184.72 501.441 185.48C502.331 186.23 502.971 186.87 503.351 187.37C503.741 187.85 503.891 188.15 503.891 188.15C503.891 188.15 503.731 187.86 503.331 187.39C502.941 186.91 502.271 186.28 501.371 185.57C500.471 184.84 499.281 184.1 497.891 183.3C496.471 182.55 494.851 181.73 493.011 181C492.551 180.82 492.091 180.62 491.611 180.44C491.131 180.27 490.631 180.09 490.131 179.91C489.131 179.53 488.081 179.22 486.991 178.88C485.911 178.52 484.791 178.24 483.641 177.93C482.501 177.6 481.311 177.34 480.101 177.06C479.501 176.93 478.881 176.76 478.281 176.65C477.671 176.55 477.061 176.42 476.441 176.34C475.811 176.28 475.191 176.2 474.561 176.15C473.921 176.12 473.291 176.1 472.641 176.07C470.071 176.04 467.461 176.29 464.881 176.69C462.291 177.1 459.731 177.67 457.241 178.33C454.741 178.99 452.321 179.77 450.001 180.58C445.351 182.2 441.111 184 437.531 185.64C433.951 187.29 431.021 188.78 429.001 189.86C427.991 190.4 427.201 190.83 426.671 191.13L425.861 191.59L425.841 191.6C425.231 191.95 424.451 191.73 424.111 191.12C423.761 190.51 423.981 189.73 424.591 189.39C424.581 189.39 424.591 189.38 424.601 189.38ZM436.891 218.05C443.681 213.81 462.331 201.51 473.781 199.6C485.231 197.69 495.831 200.02 502.191 204.69C502.781 205.13 503.331 205.54 503.831 205.92C505.001 206.9 506.151 207.97 507.281 209.14C507.721 209.6 487.351 200.02 463.391 209.99C439.431 219.95 421.621 245.61 421.621 245.61C421.621 245.61 423.231 232.49 430.101 221.51C432.461 220.557 434.733 219.399 436.891 218.05Z" fill="#2019DC"/>
<path d="M307.332 276.78C307.332 267.41 314.922 259.82 324.292 259.82C333.662 259.82 341.252 267.41 341.252 276.78C341.252 286.15 333.662 293.74 324.292 293.74C314.932 293.74 307.332 286.15 307.332 276.78Z" fill="#9200CD"/>
<path d="M455.973 276.78C455.973 267.41 463.563 259.82 472.933 259.82C482.303 259.82 489.893 267.41 489.893 276.78C489.893 286.15 482.303 293.74 472.933 293.74C463.563 293.74 455.973 286.15 455.973 276.78Z" fill="#2019DC"/>
<path d="M289.312 293.11C289.312 293.11 298.203 306.21 316.663 307.95C339.143 310.07 363.092 293.32 363.092 293.32C363.092 293.32 351.642 305.83 336.802 310.07C321.962 314.31 307.543 311.55 306.693 311.98C305.843 312.4 300.963 316.86 315.603 347.39C330.233 377.92 346.342 412.06 346.342 412.06C346.342 412.06 321.963 377.92 309.663 350.15C297.363 322.37 295.673 310.29 299.693 308.17C299.703 308.16 290.803 293.74 289.312 293.11Z" fill="#9200CD"/>
<path d="M507.702 294.17C507.702 294.17 498.812 307.27 480.352 309.01C457.872 311.13 433.922 294.38 433.922 294.38C433.922 294.38 445.372 306.89 460.212 311.13C475.052 315.37 489.472 312.61 490.322 313.04C491.172 313.46 496.052 317.92 481.422 348.45C466.792 378.98 450.672 413.12 450.672 413.12C450.672 413.12 475.052 378.98 487.352 351.21C499.652 323.43 501.342 311.35 497.322 309.23C497.322 309.22 506.222 294.8 507.702 294.17Z" fill="#2019DC"/>
<path d="M386.854 233.74C386.854 233.74 384.734 267.45 381.764 271.48C378.794 275.51 363.314 293.53 363.534 300.1C363.744 306.67 367.984 313.46 367.984 313.46C367.984 313.46 364.374 303.49 368.624 297.98C372.864 292.47 381.554 281.02 381.984 284.83C382.404 288.65 378.374 303.91 381.564 310.06C384.744 316.21 395.344 320.45 398.734 320.03C402.124 319.61 411.244 316.85 414.424 311.55C417.604 306.25 416.964 301.58 415.904 294.8C414.844 288.02 413.574 283.35 415.904 284.41C418.234 285.47 429.264 296.71 429.894 302.22C430.534 307.73 429.044 314.09 429.044 314.09C429.044 314.09 435.404 305.61 432.434 297.13C429.464 288.65 414.624 273.17 413.774 267.02C412.924 260.87 411.014 234.15 410.804 234.79C410.594 235.43 407.834 268.71 409.104 285.04C410.374 301.37 413.554 308.79 408.254 312.39C402.954 316 396.804 314.3 392.354 313.24C387.904 312.18 384.294 309 385.994 299.88C387.694 290.78 389.604 244.34 386.854 233.74Z" fill="#6F02A2"/>
<path d="M372.223 314.101C372.223 314.101 376.883 318.981 379.853 319.831C382.823 320.681 383.033 316.231 379.003 314.741C374.973 313.251 372.223 314.101 372.223 314.101ZM424.673 314.101C424.673 314.101 420.003 318.981 417.043 319.831C414.073 320.681 413.863 316.231 417.893 314.741C421.923 313.251 424.673 314.101 424.673 314.101ZM407.793 361.761C404.663 361.761 401.353 361.711 397.853 361.591C364.643 360.481 349.793 356.921 349.693 356.881C349.481 356.808 349.306 356.655 349.206 356.455C349.105 356.256 349.086 356.024 349.153 355.811C349.303 355.371 349.773 355.131 350.223 355.271C350.403 355.321 365.333 358.811 397.903 359.891C429.223 360.931 445.633 356.781 445.793 356.741C446.243 356.621 446.713 356.891 446.823 357.351C446.943 357.801 446.673 358.271 446.213 358.381C446.073 358.431 432.893 361.761 407.793 361.761Z" fill="#231F20"/>
<path d="M396.982 384.55C391.472 384.55 386.702 384.1 382.812 383.5C371.532 381.77 365.122 378.56 364.862 378.42C364.713 378.345 364.58 378.241 364.471 378.114C364.362 377.987 364.279 377.84 364.227 377.681C364.175 377.522 364.155 377.355 364.168 377.188C364.181 377.022 364.226 376.859 364.302 376.71C364.622 376.08 365.382 375.83 366.012 376.15C366.122 376.21 372.452 379.35 383.322 381C393.392 382.53 409.552 383.07 429.302 376.92C429.972 376.71 430.682 377.09 430.892 377.76C431.102 378.43 430.732 379.14 430.062 379.35C417.392 383.29 406.152 384.55 396.982 384.55Z" fill="#231C29"/>
<path d="M406.561 393.61C407.151 390.06 409.081 385.9 410.201 383.7C405.431 384.31 401.011 384.55 396.981 384.55C392.581 384.55 388.671 384.26 385.281 383.84C386.981 386.44 389.481 391.49 388.331 397.43C386.631 406.12 382.821 412.27 384.091 422.66C385.361 433.05 389.181 453.41 391.301 454.47C393.421 455.53 403.601 455.74 405.081 451.71C406.561 447.68 412.081 421.81 411.021 415.24C409.961 408.67 405.721 398.7 406.561 393.61ZM323.871 312.19C323.871 312.19 336.381 336.15 340.411 337C344.441 337.85 368.401 337.85 374.341 334.67C380.281 331.49 380.491 326.19 384.731 323.43C388.971 320.67 395.331 324.49 398.091 324.91V336.57C398.091 336.57 388.121 349.08 382.611 350.14C377.101 351.2 347.621 350.14 341.691 349.29C335.751 348.44 328.971 343.57 326.851 339.54C324.731 335.51 311.801 312.19 311.801 312.19H323.871Z" fill="black"/>
<path d="M471.873 313.68C471.873 313.68 459.573 336.15 455.543 337C451.513 337.85 427.553 337.85 421.613 334.67C415.673 331.49 415.463 326.19 411.223 323.43C406.983 320.67 400.623 324.49 397.863 324.91V336.57C397.863 336.57 407.833 349.08 413.343 350.14C418.853 351.2 448.323 350.14 454.263 349.29C460.203 348.44 466.983 343.57 469.103 339.54C471.223 335.51 483.943 313.46 483.943 313.46L471.873 313.68Z" fill="black"/>
<path d="M367.441 513.931C367.441 513.931 364.311 522.881 362.301 524.171C360.291 525.461 350.341 530.411 349.891 532.291C349.441 534.171 349.441 536.291 349.441 536.291V539.351C349.441 539.351 356.821 541.471 362.411 540.651C368.001 539.831 370.571 538.771 373.261 536.061C375.941 533.351 377.731 532.291 377.731 532.291L378.181 534.531L387.461 530.291L386.791 524.051L386.121 514.281C386.111 514.281 381.301 517.581 367.441 513.931Z" fill="url(#paint7_linear_770_5)"/>
<path d="M359.834 538.541C356.484 538.781 351.824 537.471 349.434 536.661V539.361C349.434 539.361 356.814 541.481 362.404 540.661C367.994 539.841 370.564 538.781 373.254 536.071C375.934 533.361 377.724 532.301 377.724 532.301L378.174 534.541L387.454 530.301L386.964 525.721C383.014 527.731 375.664 531.651 372.474 534.421C368.004 538.301 363.894 538.251 359.834 538.541Z" fill="black"/>
<path d="M442.473 513.931C442.473 513.931 445.603 522.881 447.613 524.171C449.623 525.461 459.583 530.411 460.023 532.291C460.473 534.171 460.473 536.291 460.473 536.291V539.351C460.473 539.351 453.093 541.471 447.503 540.651C441.913 539.831 439.343 538.771 436.653 536.061C433.973 533.351 432.183 532.291 432.183 532.291L431.733 534.531L422.453 530.291L423.123 524.051L423.793 514.281C423.793 514.281 428.603 517.581 442.473 513.931Z" fill="url(#paint8_linear_770_5)"/>
<path d="M450.07 538.54C453.42 538.78 458.08 537.47 460.47 536.66V539.36C460.47 539.36 453.09 541.48 447.5 540.66C441.91 539.84 439.34 538.78 436.65 536.07C433.97 533.36 432.18 532.3 432.18 532.3L431.73 534.54L422.45 530.3L422.94 525.72C426.89 527.73 434.24 531.65 437.43 534.42C441.91 538.3 446.02 538.25 450.07 538.54ZM389.54 247.56L387.45 240.63C387.45 240.63 384.1 232.02 383.54 228.89C382.98 225.76 380.63 214.24 383.99 207.42C386.2 202.93 392.94 201.61 398.19 201.49C403 201.39 409.36 203.24 410.71 211.22C411.83 217.82 412.16 225.09 412.16 228.22C412.16 231.35 409.59 240.18 409.59 240.18L407.23 247.77L398.55 257.04L389.54 247.56Z" fill="black"/>
<path d="M383.482 213.64C384.702 213.15 384.462 205.34 395.692 206.8C406.922 208.27 410.832 213.39 413.032 209.49C415.232 205.58 415.472 205.09 415.472 205.09C415.472 205.09 412.782 200.94 410.592 199.47C407.682 197.53 395.692 193.12 386.662 197.76C377.622 202.4 379.092 210.95 379.092 210.95" fill="white"/>
<path d="M465.062 256.06C464.172 252.93 428.722 223.86 428.722 223.86C428.722 223.86 423.912 227.96 422.572 230.35C421.232 232.74 418.992 238.51 418.992 238.51L439.412 252.48C439.412 252.48 419.742 256.22 418.102 255.77C416.462 255.32 413.332 253.24 413.332 253.24L407.222 247.57L403.052 254.43L398.572 257.05L394.092 254.43L389.552 247.72L383.802 253.24C383.802 253.24 380.672 255.33 379.032 255.77C377.392 256.22 359.082 252.72 359.082 252.72L378.142 238.51C378.142 238.51 375.902 232.73 374.562 230.35C373.222 227.96 368.412 223.86 368.412 223.86C368.412 223.86 332.962 252.93 332.072 256.06C331.182 259.19 331.402 263.89 333.412 265.68C335.422 267.47 364.722 280.52 364.722 280.52C364.722 280.52 369.972 328.19 368.752 330.02C366.362 333.6 367.182 335.91 367.182 335.91C367.182 335.91 380.642 339.61 396.422 340.32V340.42C397.152 340.42 397.862 340.41 398.572 340.4C399.282 340.42 399.992 340.42 400.722 340.42V340.32C416.512 339.61 429.962 335.91 429.962 335.91C429.962 335.91 430.782 333.6 428.392 330.02C427.172 328.19 432.422 280.52 432.422 280.52C432.422 280.52 461.722 267.47 463.732 265.68C465.732 263.89 465.952 259.19 465.062 256.06Z" fill="url(#paint9_linear_770_5)"/>
<path d="M374.203 331.36C369.543 318.34 364.193 274.21 364.193 274.21L363.223 279.86C364.153 280.28 364.693 280.52 364.693 280.52C364.693 280.52 369.943 328.19 368.723 330.02C366.333 333.6 367.153 335.91 367.153 335.91C367.153 335.91 372.583 337.4 380.593 338.67C380.593 338.66 375.173 334.08 374.203 331.36Z" fill="url(#paint10_linear_770_5)"/>
<path d="M418.992 238.51L442.342 253.94L449.662 255.65" fill="url(#paint11_linear_770_5)"/>
<path d="M378.11 238.51L355.88 254.43L348.07 255.89" fill="url(#paint12_linear_770_5)"/>
<path d="M465.41 261.891C455.17 268.721 432.82 275.431 432.82 275.431L432.41 280.511C432.41 280.511 461.71 267.461 463.72 265.671C464.62 264.871 465.16 263.471 465.41 261.891Z" fill="url(#paint13_linear_770_5)"/>
<path d="M364.191 274.211C364.191 274.211 339.601 265.891 331.961 263.101C332.261 264.171 332.731 265.081 333.391 265.681C335.401 267.471 364.701 280.521 364.701 280.521L364.191 274.211Z" fill="url(#paint14_linear_770_5)"/>
<path d="M386.533 237.45C386.533 237.45 384.323 238.06 383.763 237.16C383.203 236.27 379.733 230.23 380.523 228.66C381.303 227.09 383.323 227.09 383.323 227.09C383.323 227.09 385.753 236.11 386.533 237.45Z" fill="#1A0C4D"/>
<path d="M370.9 225.98C370.57 225.84 373.58 218.71 374.59 217.93C375.6 217.15 392.37 213.57 393.38 214.13C394.39 214.69 393.94 216.37 393.94 216.37C393.94 216.37 387.12 228.11 388.57 228.11C390.02 228.11 392.15 227.66 393.27 227.1C394.39 226.54 396.4 225.31 397.63 225.76C398.86 226.21 398.75 226.88 397.63 228C396.51 229.12 391.59 232.03 389.24 232.81C386.89 233.59 383.87 235.05 381.75 235.38C379.63 235.72 377.39 235.83 377.39 235.83C377.39 235.83 372.24 226.54 370.9 225.98Z" fill="white"/>
<path d="M369.492 337.32L370.092 345.67C370.092 345.67 379.932 349.99 397.672 349.99C415.412 349.99 428.832 345.67 428.832 345.67L428.682 336.13C428.682 336.13 404.522 344.48 369.492 337.32Z" fill="url(#paint15_linear_770_5)"/>
<path d="M406.61 349.02C406.61 349.51 406.21 349.91 405.72 349.91H394.39C393.9 349.91 393.5 349.51 393.5 349.02V341.12C393.5 340.63 393.9 340.23 394.39 340.23H405.72C406.21 340.23 406.61 340.63 406.61 341.12V349.02Z" fill="url(#paint16_radial_770_5)"/>
<path d="M370.08 345.67C370.08 345.67 367.38 451.61 366.47 467.73C366.46 467.99 365.98 514.11 365.98 514.11C365.98 514.11 375.98 517.07 382.31 515.99C386.45 515.28 386.78 514.58 386.78 514.58L397.96 390.56L401.31 390.09L422.33 514.58C422.33 514.58 427.92 516.82 434.85 516.23C437.43 516.01 442.79 513.99 442.79 513.99L428.81 345.66C428.83 345.67 399.68 354.54 370.08 345.67Z" fill="black"/>
<path d="M383.783 253.231L379.453 255.531L388.793 254.421L398.553 257.041L389.713 247.651L383.783 253.231ZM398.683 256.871L407.213 253.831L418.283 255.951L413.343 253.081L407.213 247.561L398.683 256.871Z" fill="white"/>
<path d="M410.712 235.711C410.582 236.021 412.952 236.381 413.512 234.371C414.072 232.361 415.302 228.441 414.962 226.991C414.622 225.541 412.162 225.981 412.162 225.981C412.162 225.981 411.612 233.591 410.712 235.711Z" fill="#1A0C4D"/>
<path d="M426.221 225.98C426.551 225.84 423.541 218.71 422.531 217.93C421.521 217.15 404.751 213.57 403.741 214.13C402.731 214.69 403.181 216.37 403.181 216.37C403.181 216.37 410.001 228.11 408.551 228.11C407.101 228.11 404.971 227.66 403.851 227.1C402.731 226.54 400.721 225.31 399.491 225.76C398.261 226.21 398.371 226.88 399.491 228C400.611 229.12 405.531 232.03 407.881 232.81C410.231 233.59 413.251 235.05 415.371 235.38C417.491 235.72 419.731 235.83 419.731 235.83C419.731 235.83 424.871 226.54 426.221 225.98Z" fill="white"/>
<path d="M404.603 216.181L399.983 218.121C399.983 218.121 399.312 220.211 399.312 221.851C399.312 223.491 399.833 225.801 399.833 225.801L408.553 228.111C408.553 228.111 401.243 224.081 404.603 216.181Z" fill="url(#paint17_linear_770_5)"/>
<path d="M392.673 216.181L397.293 218.121C397.293 218.121 397.963 220.211 397.963 221.851C397.963 223.491 397.443 225.801 397.443 225.801L388.723 228.111C388.723 228.111 396.023 224.081 392.673 216.181Z" fill="url(#paint18_linear_770_5)"/>
<path d="M396.32 217.67H401.09V225.27H396.32V217.67Z" fill="url(#paint19_linear_770_5)"/>
<path d="M396.32 219.98C396.32 218.75 397.32 217.74 398.56 217.74C399.79 217.74 400.8 218.74 400.8 219.98C400.8 221.22 399.8 222.22 398.56 222.22C397.32 222.22 396.32 221.22 396.32 219.98Z" fill="url(#paint20_linear_770_5)"/>
<path d="M367.32 221.04C367.32 213.74 373.24 207.82 380.54 207.82C387.84 207.82 393.77 213.74 393.77 221.04C393.77 228.34 387.85 234.27 380.54 234.27C373.24 234.26 367.32 228.34 367.32 221.04Z" fill="url(#paint21_linear_770_5)"/>
<path d="M371 220.81C371 215.39 375.39 211 380.81 211C386.23 211 390.62 215.39 390.62 220.81C390.62 226.23 386.23 230.62 380.81 230.62C375.39 230.62 371 226.23 371 220.81Z" fill="#FF6038"/>
<path d="M403.621 221.85C403.621 214.55 409.541 208.63 416.841 208.63C424.141 208.63 430.071 214.55 430.071 221.85C430.071 229.15 424.151 235.08 416.841 235.08C409.541 235.08 403.621 229.16 403.621 221.85Z" fill="url(#paint22_linear_770_5)"/>
<path d="M398.683 256.871L401.283 282.491L398.953 314.431L401.883 339.821L398.553 340.391L395.633 314.401L397.973 282.841L395.363 256.141L398.683 256.871Z" fill="url(#paint23_linear_770_5)"/>
<path d="M562.253 507.731C562.253 507.731 560.973 513.451 560.973 515.551C560.973 517.651 561.673 523.371 561.673 523.371L571.593 523.141L572.063 520.691L574.863 523.371L602.633 523.141C602.633 523.141 602.163 518.821 599.133 517.661C596.103 516.491 590.853 517.191 587.813 515.441C584.783 513.691 573.863 506.471 573.863 506.471L562.253 507.731Z" fill="black"/>
<path d="M547.473 257.79C547.473 257.79 539.153 250.87 537.983 246.74C536.813 242.62 537.753 239.43 537.753 239.43C537.753 239.43 535.573 231.96 539.463 227.45C543.353 222.94 551.753 220.76 557.203 221.93C562.643 223.1 568.563 226.6 570.193 226.29C571.823 225.98 571.983 225.05 571.983 225.05C571.983 225.05 572.913 233.68 568.013 233.76C563.113 233.84 557.903 233.76 556.113 234.54L553.083 235.86C553.083 235.86 553.473 239.28 553.003 241.07C552.533 242.86 551.833 243.64 551.833 243.64C551.833 243.64 548.173 240.45 546.313 240.92C544.443 241.39 541.953 245.43 544.443 248.15C546.933 250.87 549.733 251.34 549.733 251.34L547.473 257.79Z" fill="#5A31FC"/>
<path d="M572.2 243.25C572.2 243.25 572.28 242.94 571.34 239.05C570.41 235.16 568 233.76 568 233.76C563.1 233.84 557.89 233.76 556.1 234.54L553.07 235.86C553.07 235.86 553.46 239.28 552.99 241.07C552.52 242.86 551.82 243.64 551.82 243.64C551.82 243.64 548.16 240.45 546.3 240.92C544.43 241.39 541.94 245.43 544.43 248.15C546.92 250.87 549.72 251.34 549.72 251.34L547.46 257.8C547.46 257.8 546.99 262.78 546.92 263.09C546.84 263.4 550.03 263.17 553.38 263.56C556.72 263.95 566.29 266.44 566.29 266.44L565.9 263.64C565.9 263.64 573.45 263.8 574.53 263.1C575.62 262.4 574.06 252.68 574.06 252.68C574.06 252.68 578.11 250.89 578.42 250.42C578.74 249.94 572.2 243.25 572.2 243.25ZM595.5 250.55C595.5 250.55 592.76 247.21 590.57 246.94C588.37 246.67 585.64 246.9 585.23 246.03C584.82 245.16 582.7 240.59 582.23 239.81C581.76 239.03 578.73 235.83 579.29 235.08C579.85 234.33 582.71 235.5 584.72 237.24C586.74 238.98 589.55 242.3 590.66 242.31C591.77 242.32 604.1 239.68 604.1 239.68C604.1 239.68 605.28 242.77 605.39 244.1C605.5 245.43 607.13 248.03 607.13 248.03L595.5 250.55Z" fill="black"/>
<path d="M628.221 242.611C627.871 242.581 629.641 240.021 629.641 240.021C629.641 240.021 633.681 240.201 636.931 241.571C640.181 242.941 640.161 244.01 640.161 244.01C640.161 244.01 639.021 247.811 639.071 247.441C639.121 247.081 635.391 243.311 628.221 242.611ZM596.181 253.711L594.871 250.76L607.891 248.021L609.221 250.48L596.181 253.711Z" fill="white"/>
<path d="M700.817 206C700.817 206 703.287 207.64 704.557 211.56C705.817 215.47 703.697 219.11 703.697 219.11L573.027 245.78C573.027 245.78 568.697 244.39 569.017 240.04" fill="url(#paint24_linear_770_5)"/>
<path d="M646.643 218.92L601.623 230.42C601.623 230.42 600.803 232.39 602.613 238.8C603.033 240.3 603.763 240.28 603.763 240.28L648.943 231.24C648.943 231.25 646.483 221.72 646.643 218.92Z" fill="url(#paint25_linear_770_5)"/>
<path d="M643.203 219.801C643.473 222.721 644.143 227.661 645.783 231.881L648.943 231.251C648.943 231.251 646.483 221.721 646.643 218.931L643.203 219.801Z" fill="url(#paint26_linear_770_5)"/>
<path d="M590.172 242.18C590.172 242.18 583.592 236.68 583.952 234.94C584.312 233.2 586.982 233.06 586.982 233.06C586.982 233.06 588.812 231.11 590.182 231.23C591.552 231.35 591.552 232.14 591.552 232.14C591.552 232.14 592.262 230.17 593.532 230.15C594.802 230.13 594.972 231.37 594.972 231.37C594.972 231.37 596.112 229.55 597.902 229.75C599.692 229.95 600.402 231.94 600.402 231.94C600.402 231.94 599.092 233.71 599.322 234.86C599.552 236 601.372 239.52 600.992 240C600.622 240.47 595.222 243.62 590.172 242.18ZM629.612 239.82C629.612 239.82 630.702 236.96 630.482 236.26C630.262 235.56 625.722 230.77 625.562 228.41C625.402 226.05 626.772 222.22 627.522 221.98C628.272 221.75 629.112 221.58 629.112 221.58C629.112 221.58 632.232 219.71 634.062 219.34C635.892 218.97 638.182 218.92 638.182 218.92C638.182 218.92 641.012 218.76 641.652 219.21L642.302 219.66C642.302 219.66 641.212 226.08 641.302 227.71C641.392 229.35 642.872 232.35 642.802 233.19C642.732 234.03 640.022 239.87 640.022 239.87C640.022 239.87 639.672 243.25 639.622 243.01C639.562 242.78 636.312 240.79 629.612 239.82Z" fill="black"/>
<path d="M575.293 272.32L602.063 268.71L595.523 253.96L610.113 250.19L616.973 261.78L609.653 275.87L580.513 276.98C580.513 276.98 576.803 273.32 575.293 272.32Z" fill="url(#paint27_linear_770_5)"/>
<path d="M541.953 263.241C541.953 263.241 555.023 262.311 564.983 266.041C574.943 269.771 580.693 278.331 580.693 278.331C580.693 278.331 588.313 296.691 589.563 301.361C590.813 306.031 596.563 327.341 596.563 329.671C596.563 332.001 596.873 361.721 596.403 363.741C595.933 365.761 594.073 367.781 594.073 367.781L546.153 371.671C546.153 371.671 550.043 349.111 550.043 346.001C550.043 342.891 549.113 334.021 548.643 331.381C548.173 328.741 535.883 285.331 535.883 283.931C535.883 282.531 541.953 268.991 541.953 268.991V263.241Z" fill="url(#paint28_linear_770_5)"/>
<path d="M596.601 336.751C596.571 333.071 596.551 330.311 596.551 329.671C596.551 327.341 590.791 306.021 589.551 301.361C588.311 296.691 580.681 278.331 580.681 278.331C580.681 278.331 574.921 269.771 564.971 266.041C555.011 262.311 541.941 263.241 541.941 263.241V269.001C541.941 269.001 556.561 269.471 564.031 273.041C571.501 276.621 579.591 293.581 582.861 301.361C586.131 309.141 596.401 336.991 596.401 336.991C596.401 336.991 596.471 336.901 596.601 336.751Z" fill="url(#paint29_linear_770_5)"/>
<path d="M557.391 278.78C557.391 278.78 569.931 277.21 578.171 277.13C586.411 277.06 609.661 275.87 609.661 275.87C609.661 275.87 618.551 258.53 622.021 252.12C625.491 245.71 628.241 242.62 628.241 242.62C628.241 242.62 632.721 243.78 635.281 244.69C637.841 245.6 639.091 247.45 639.091 247.45C639.091 247.45 629.261 280.97 627.401 284.36C625.541 287.75 620.031 291.08 616.301 292.31C612.581 293.54 586.411 298.33 576.371 298.92C566.331 299.51 559.471 298.52 559.471 298.52C559.471 298.52 553.821 292.52 553.931 286.78C554.031 281.04 557.391 278.78 557.391 278.78Z" fill="url(#paint30_linear_770_5)"/>
<path opacity="0.5" d="M611.321 277.421L628.901 243.081L628.201 242.641C627.941 242.941 625.301 246.031 622.011 252.111C618.541 258.521 609.651 275.861 609.651 275.861C609.651 275.861 586.401 277.051 578.161 277.121C569.921 277.191 557.381 278.771 557.381 278.771C557.381 278.771 557.181 278.901 556.891 279.181C562.161 278.901 611.321 277.421 611.321 277.421Z" fill="white"/>
<path d="M549.723 371.36C549.723 371.98 551.593 374.47 552.833 376.03C554.073 377.59 554.703 378.05 554.703 378.05L561.243 434.99C561.243 434.99 559.533 445.88 559.843 458.95C560.153 472.02 560.933 507.96 560.933 507.96L576.803 507.18C576.803 507.18 583.653 442.93 584.893 437.17C586.133 431.41 587.223 412.28 588.313 396.41C589.403 380.54 589.403 367.78 589.403 367.78L549.723 371.36Z" fill="black"/>
<path d="M554.701 378.05C554.231 378.67 546.611 428.92 545.371 432.19C544.131 435.46 531.371 462.84 529.031 469.84C526.701 476.84 521.871 501.73 521.871 501.73C521.871 501.73 536.961 505.93 536.961 505.46C536.961 504.99 547.541 473.72 553.141 465.17C558.741 456.61 559.831 455.37 559.831 455.37C559.831 455.37 559.991 445.26 560.611 440.12C561.231 434.99 561.391 434.52 561.391 434.52L554.701 378.05Z" fill="black"/>
<path d="M522.933 502.01C522.933 502.01 518.963 508.43 518.153 510.53C517.333 512.63 516.523 516.83 516.523 516.83L526.913 520.1L529.243 517.77L528.423 520.34C528.423 520.34 536.243 523.37 538.103 523.49C539.973 523.61 557.473 523.14 557.473 523.14C557.473 523.14 558.053 519.06 553.153 517.07C548.253 515.09 546.033 516.84 542.653 514.62C539.273 512.4 534.723 505.17 534.723 505.17L522.933 502.01Z" fill="black"/>
<path d="M646.482 216.79C646.482 216.79 646.232 219.5 647.472 225.42C648.702 231.33 649.932 233.8 649.932 233.8L712.532 223.45C712.532 223.45 715.252 218.83 713.272 210.39C711.382 202.34 708.342 200.04 708.342 200.04L646.482 216.79Z" fill="url(#paint31_linear_770_5)"/>
<path d="M710.732 223.74L712.532 223.44C712.532 223.44 715.252 218.82 713.272 210.38C711.382 202.33 708.342 200.03 708.342 200.03L705.902 200.69C708.162 203.71 712.522 211.36 710.732 223.74Z" fill="url(#paint32_linear_770_5)"/>
<path d="M240.45 439.34C240.45 439.34 239.23 451.89 236.17 455.56C233.11 459.23 229.44 465.05 222.7 464.44C215.97 463.83 154.46 449.34 154.46 449.34L153.03 518.09C153.03 518.09 139.57 519.31 134.67 518.9C129.77 518.49 126.31 516.66 126.31 516.66C126.31 516.66 124.07 438.32 124.47 436.08C124.88 433.83 132.22 419.76 138.14 419.96C144.05 420.16 240.45 439.34 240.45 439.34Z" fill="black"/>
<path d="M127.981 517.22C127.981 517.22 119.561 523.19 114.511 524.26C109.461 525.33 103.651 526.55 102.421 528.24C101.201 529.92 102.111 532.68 102.111 532.68C102.111 532.68 126.291 535.59 133.171 535.43C140.061 535.28 141.431 534.82 141.431 534.82L143.731 531.91L143.581 535.12L155.821 534.66C155.821 534.66 156.131 527.47 155.061 524.26C153.991 521.05 152.461 518.14 152.461 518.14C152.461 518.14 134.721 521.04 127.981 517.22ZM190.721 457.7C190.721 457.7 185.981 518.75 186.441 520.59C186.901 522.43 191.031 530.23 195.471 531.3C199.911 532.37 276.411 532.06 276.411 531.61C276.411 531.15 276.261 520.59 276.261 514.78C276.261 508.97 275.341 506.06 275.341 506.06L212.761 508.66C212.761 508.66 220.261 485.56 222.091 477.75C223.931 469.95 225.001 464.59 225.001 464.59C225.001 464.59 217.491 463.36 190.721 457.7Z" fill="black"/>
<path d="M275.333 506.051C275.263 505.031 279.313 501.611 281.603 499.471C283.893 497.331 286.653 496.561 286.653 496.561L295.223 508.801C295.223 508.801 296.753 513.701 300.123 517.981C303.493 522.271 311.443 536.041 311.603 537.261C311.753 538.481 307.773 542.461 302.273 539.711C296.763 536.961 284.213 524.411 281.313 523.951C278.403 523.491 276.723 523.181 276.723 523.181C276.723 523.181 275.643 510.791 275.333 506.051Z" fill="black"/>
<path d="M207.911 319.43C207.911 319.43 215.121 308.42 215.001 303.22C214.891 298.01 212.671 294.64 212.671 294.64C212.671 294.64 212.541 285.19 206.421 281.33C200.291 277.47 189.761 277.93 183.841 281.23C177.931 284.53 172.311 290.7 170.301 290.92C168.291 291.14 167.781 290.11 167.781 290.11C167.781 290.11 169.771 300.48 175.491 298.82C181.211 297.16 187.241 295.22 189.601 295.48C191.961 295.75 193.601 295.94 193.601 295.94C193.601 295.94 194.371 300.06 195.551 301.97C196.731 303.88 197.821 304.54 197.821 304.54C197.821 304.54 200.931 299.53 203.271 299.41C205.601 299.29 209.941 303.1 208.021 307.15C206.101 311.2 203.011 312.74 203.011 312.74L207.911 319.43Z" fill="#5A31FC"/>
<path d="M173.98 311.34C173.98 311.34 173.78 311.01 173.48 306.15C173.18 301.3 175.48 298.81 175.48 298.81C181.2 297.15 187.23 295.21 189.59 295.47C191.95 295.74 193.59 295.93 193.59 295.93C193.59 295.93 194.36 300.05 195.54 301.96C196.72 303.87 197.81 304.53 197.81 304.53C197.81 304.53 200.92 299.52 203.26 299.4C205.59 299.28 209.93 303.09 208.01 307.14C206.09 311.19 203 312.73 203 312.73L207.92 319.43C207.92 319.43 210.24 325.05 210.44 325.38C210.64 325.71 206.85 326.58 203.1 328.22C199.35 329.86 189.12 336.16 189.12 336.16L188.57 332.77C188.57 332.77 179.86 335.64 178.34 335.21C176.83 334.78 175.17 322.93 175.17 322.93C175.17 322.93 169.83 322.29 169.3 321.86C168.77 321.44 173.98 311.34 173.98 311.34ZM145.31 335.55C145.31 335.55 146.3 330.4 148.49 328.84C150.68 327.28 153.73 325.95 153.67 324.78C153.61 323.61 153.22 317.5 153.28 316.4C153.34 315.3 154.72 310.13 153.68 309.65C152.64 309.18 150.27 312.08 149.12 315.1C147.97 318.12 146.89 323.3 145.7 323.96C144.52 324.62 129.82 328.93 129.82 328.93C129.82 328.93 130.35 332.92 131 334.4C131.65 335.88 131.41 339.62 131.41 339.62L145.31 335.55Z" fill="black"/>
<path d="M105.753 345.99C106.103 345.75 102.733 344.05 102.733 344.05C102.733 344.05 98.5134 346.58 95.8334 349.92C93.1534 353.26 93.7934 354.4 93.7934 354.4C93.7934 354.4 97.2134 357.8 96.9534 357.44C96.6934 357.08 98.5034 350.89 105.753 345.99ZM146.423 339.31L146.113 335.4L130.613 340.01L130.623 343.41L146.423 339.31Z" fill="white"/>
<path d="M168.619 307L8.04907 346.87C8.04907 346.87 6.35907 350.06 7.26907 354.97C8.17907 359.88 12.5591 362.55 12.5591 362.55L167.649 315.46C167.649 315.45 171.469 311.46 168.619 307Z" fill="url(#paint33_linear_770_5)"/>
<path d="M79.6722 344.96L131.632 328.79C131.632 328.79 132.472 326.43 129.972 319.05C129.382 317.32 128.542 317.39 128.542 317.39L76.2422 330.68C76.2422 330.68 79.7022 341.68 79.6722 344.96Z" fill="url(#paint34_linear_770_5)"/>
<path d="M80.4322 329.62L76.2422 330.68C76.2422 330.68 79.7022 341.68 79.6722 344.95L83.8022 343.66C83.7422 337.08 81.8422 332.28 80.4322 329.62Z" fill="url(#paint35_linear_770_5)"/>
<path d="M146.172 323.52C146.172 323.52 150.022 313.84 148.632 312.19C147.232 310.54 144.302 311.94 144.302 311.94C144.302 311.94 141.212 310.91 139.822 311.83C138.422 312.75 138.882 313.6 138.882 313.6C138.882 313.6 136.982 311.91 135.612 312.62C134.252 313.33 134.782 314.75 134.782 314.75C134.782 314.75 132.512 313.47 130.712 314.71C128.912 315.95 129.302 318.5 129.302 318.5C129.302 318.5 131.722 319.64 132.142 320.99C132.562 322.34 132.652 327.16 133.332 327.45C134.022 327.74 141.612 327.98 146.172 323.52ZM102.732 344.05C102.732 344.05 99.9517 341.74 99.7917 340.9C99.6317 340.06 101.792 332.58 100.622 330.06C99.4517 327.55 95.8217 324.41 94.8917 324.6C93.9617 324.79 92.9617 325.09 92.9617 325.09C92.9617 325.09 88.5717 324.95 86.4017 325.62C84.2317 326.28 81.7517 327.54 81.7517 327.54C81.7517 327.54 78.6317 328.99 78.2017 329.82L77.7617 330.65C77.7617 330.65 82.5517 336.6 83.3717 338.32C84.2017 340.04 84.3117 343.96 84.8617 344.79C85.4117 345.61 91.6117 350.04 91.6117 350.04C91.6117 350.04 93.8917 353.3 93.8117 353.02C93.7317 352.74 96.0917 348.86 102.732 344.05Z" fill="black"/>
<path d="M179.513 347.12L148.823 358.75L147.283 339.2L129.503 343.61L128.883 359.97L144.853 370.8L176.633 355.13C176.623 355.12 178.483 349.07 179.513 347.12Z" fill="url(#paint36_linear_770_5)"/>
<path d="M216.263 323.79C216.263 323.79 200.743 327.36 190.503 335.24C180.263 343.12 176.623 355.12 176.623 355.12C176.623 355.12 174.303 379.17 174.523 385.03C174.743 390.9 175.643 417.71 176.473 420.42C177.303 423.13 187.523 457.77 188.793 459.95C190.053 462.13 192.943 463.82 192.943 463.82L250.003 451.28C250.003 451.28 237.453 426.45 236.343 422.84C235.233 419.23 233.163 408.59 232.763 405.35C232.363 402.11 231.183 347.3 230.683 345.67C230.183 344.04 218.313 330.48 218.313 330.48L216.263 323.79Z" fill="url(#paint37_linear_770_5)"/>
<path d="M178.943 428.68C177.663 424.39 176.703 421.18 176.473 420.43C175.643 417.72 174.743 390.9 174.523 385.04C174.303 379.17 176.623 355.13 176.623 355.13C176.623 355.13 180.263 343.14 190.503 335.25C200.743 327.36 216.263 323.8 216.263 323.8L218.313 330.49C218.313 330.49 201.483 336.24 194.083 343.06C186.683 349.88 183.323 372.46 182.293 382.67C181.263 392.87 179.253 428.89 179.253 428.89C179.253 428.89 179.143 428.8 178.943 428.68Z" fill="url(#paint38_linear_770_5)"/>
<path d="M202.381 343.67C202.381 343.67 188.071 349.24 179.221 353.93C170.371 358.62 144.841 370.8 144.841 370.8C144.841 370.8 125.311 357.41 117.891 352.56C110.471 347.71 105.741 346 105.741 346C105.741 346 101.621 349.83 99.4114 352.29C97.2014 354.75 96.9414 357.45 96.9414 357.45C96.9414 357.45 126.841 387.59 130.791 390.14C134.741 392.69 142.561 393.06 147.251 392.22C151.931 391.38 182.681 381.36 193.751 376.19C204.821 371.02 211.581 365.98 211.581 365.98C211.581 365.98 214.151 356.29 210.711 350.23C207.271 344.14 202.381 343.67 202.381 343.67Z" fill="url(#paint39_linear_770_5)"/>
<path opacity="0.5" d="M127.422 360.89C142.042 371.47 144.742 373.59 145.512 373.21C146.282 372.83 200.742 344.54 200.742 344.54L200.182 344.55C195.822 346.3 185.952 350.37 179.232 353.94C170.382 358.63 144.852 370.81 144.852 370.81C144.852 370.81 125.322 357.42 117.902 352.57C110.482 347.72 105.752 346.01 105.752 346.01L105.672 346.67C105.672 346.65 112.792 350.31 127.422 360.89Z" fill="white"/>
<path d="M74.6117 328.021C74.6117 328.021 76.3717 330.681 78.3717 337.471C80.3717 344.261 80.4617 347.481 80.4617 347.481L10.1117 371.431C10.1117 371.431 4.75171 368.161 2.12171 358.351C-0.378293 348.991 1.48171 344.941 1.48171 344.941L74.6117 328.021Z" fill="url(#paint40_linear_770_5)"/>
<path d="M12.1317 370.75L10.1117 371.44C10.1117 371.44 4.75171 368.17 2.12171 358.36C-0.378293 349 1.48171 344.95 1.48171 344.95L4.37171 344.28C3.70171 348.65 3.44171 358.96 12.1317 370.75Z" fill="url(#paint41_linear_770_5)"/>
<path d="M407 220.81C407 215.39 411.39 211 416.81 211C422.23 211 426.62 215.39 426.62 220.81C426.62 226.23 422.23 230.62 416.81 230.62C411.39 230.62 407 226.23 407 220.81Z" fill="#FF6038"/>
</g>
<defs>
<linearGradient id="paint0_linear_770_5" x1="38522.1" y1="54671.2" x2="38522.1" y2="-6167.19" gradientUnits="userSpaceOnUse">
<stop stop-color="#7700BB"/>
<stop offset="0.5241" stop-color="#00008B"/>
<stop offset="1" stop-color="#00003B"/>
</linearGradient>
<linearGradient id="paint1_linear_770_5" x1="4812.29" y1="262.921" x2="3371.81" y2="7425.5" gradientUnits="userSpaceOnUse">
<stop stop-color="#88CFDA"/>
<stop offset="0.00834" stop-color="#89CFD9"/>
<stop offset="0.00844" stop-color="#F0DFA7"/>
<stop offset="0.00854" stop-color="#C8D9BB"/>
<stop offset="0.00864" stop-color="#FF6038"/>
</linearGradient>
<linearGradient id="paint2_linear_770_5" x1="214.04" y1="24109.8" x2="37454.1" y2="24109.8" gradientUnits="userSpaceOnUse">
<stop stop-color="#5A31FC"/>
<stop offset="1"/>
</linearGradient>
<linearGradient id="paint3_linear_770_5" x1="24685.8" y1="16495.3" x2="6682.29" y2="17429.5" gradientUnits="userSpaceOnUse">
<stop stop-color="#7102A2"/>
<stop offset="1" stop-color="#080E83"/>
</linearGradient>
<linearGradient id="paint4_linear_770_5" x1="275.845" y1="15875.2" x2="24774.6" y2="15875.2" gradientUnits="userSpaceOnUse">
<stop stop-color="#5A31FC"/>
<stop offset="1"/>
</linearGradient>
<linearGradient id="paint5_linear_770_5" x1="306.21" y1="1112.14" x2="5863.37" y2="1112.14" gradientUnits="userSpaceOnUse">
<stop stop-color="#7A9FFF"/>
<stop offset="0.7861" stop-color="white"/>
</linearGradient>
<linearGradient id="paint6_linear_770_5" x1="437.061" y1="1112.14" x2="5994.28" y2="1112.14" gradientUnits="userSpaceOnUse">
<stop stop-color="#7A9FFF"/>
<stop offset="0.7861" stop-color="white"/>
</linearGradient>
<linearGradient id="paint7_linear_770_5" x1="3493.12" y1="1340.83" x2="2191.95" y2="2851.11" gradientUnits="userSpaceOnUse">
<stop stop-color="#270036"/>
<stop offset="0.5936" stop-color="#4F008B"/>
<stop offset="1" stop-color="#4C24B1"/>
</linearGradient>
<linearGradient id="paint8_linear_770_5" x1="1052.63" y1="1405.73" x2="2217.57" y2="2594.97" gradientUnits="userSpaceOnUse">
<stop stop-color="#270036"/>
<stop offset="0.5936" stop-color="#4F008B"/>
<stop offset="1" stop-color="#4C24B1"/>
</linearGradient>
<linearGradient id="paint9_linear_770_5" x1="7029.28" y1="-944.537" x2="7029.28" y2="14004.7" gradientUnits="userSpaceOnUse">
<stop stop-color="#7633FF"/>
<stop offset="0.1585" stop-color="#7137FF"/>
<stop offset="0.3535" stop-color="#6243FF"/>
<stop offset="0.5676" stop-color="#4957FF"/>
<stop offset="0.7937" stop-color="#2672FF"/>
<stop offset="1" stop-color="#0090FF"/>
</linearGradient>
<linearGradient id="paint10_linear_770_5" x1="1231.95" y1="1886.03" x2="1231.95" y2="7161.25" gradientUnits="userSpaceOnUse">
<stop stop-color="#009AFF"/>
<stop offset="1" stop-color="white"/>
</linearGradient>
<linearGradient id="paint11_linear_770_5" x1="1952.49" y1="66.3042" x2="1952.49" y2="2265.02" gradientUnits="userSpaceOnUse">
<stop stop-color="#009AFF"/>
<stop offset="1" stop-color="white"/>
</linearGradient>
<linearGradient id="paint12_linear_770_5" x1="1850.01" y1="63.8581" x2="1850.01" y2="2293.9" gradientUnits="userSpaceOnUse">
<stop stop-color="#009AFF"/>
<stop offset="1" stop-color="white"/>
</linearGradient>
<linearGradient id="paint13_linear_770_5" x1="128.216" y1="1473.05" x2="3345.01" y2="-114.198" gradientUnits="userSpaceOnUse">
<stop stop-color="#009AFF"/>
<stop offset="1" stop-color="white"/>
</linearGradient>
<linearGradient id="paint14_linear_770_5" x1="3816.68" y1="1319.08" x2="797.695" y2="66.3013" gradientUnits="userSpaceOnUse">
<stop stop-color="#009AFF"/>
<stop offset="1" stop-color="white"/>
</linearGradient>
<linearGradient id="paint15_linear_770_5" x1="369.255" y1="1029.03" x2="6303.02" y2="1029.03" gradientUnits="userSpaceOnUse">
<stop stop-color="#270036"/>
<stop offset="0.5936" stop-color="#4F008B"/>
<stop offset="1" stop-color="#4C24B1"/>
</linearGradient>
<radialGradient id="paint16_radial_770_5" cx="0" cy="0" r="1" gradientUnits="userSpaceOnUse" gradientTransform="translate(860.98 824.395) scale(576.707 576.706)">
<stop stop-color="#A6FFFF"/>
<stop offset="0.1988" stop-color="#A4FDFF"/>
<stop offset="0.3125" stop-color="#9FF4FF"/>
<stop offset="0.4047" stop-color="#95E6FF"/>
<stop offset="0.4855" stop-color="#87D3FF"/>
<stop offset="0.5587" stop-color="#76B9FF"/>
<stop offset="0.6255" stop-color="#609AFF"/>
<stop offset="0.6524" stop-color="#568BFF"/>
</radialGradient>
<linearGradient id="paint17_linear_770_5" x1="398.878" y1="812.454" x2="1323.15" y2="812.454" gradientUnits="userSpaceOnUse">
<stop stop-color="#009AFF"/>
<stop offset="1" stop-color="white"/>
</linearGradient>
<linearGradient id="paint18_linear_770_5" x1="388.704" y1="812.454" x2="1312.98" y2="812.454" gradientUnits="userSpaceOnUse">
<stop stop-color="#009AFF"/>
<stop offset="1" stop-color="white"/>
</linearGradient>
<linearGradient id="paint19_linear_770_5" x1="396.678" y1="597.852" x2="873.778" y2="597.852" gradientUnits="userSpaceOnUse">
<stop stop-color="#009AFF"/>
<stop offset="1" stop-color="white"/>
</linearGradient>
<linearGradient id="paint20_linear_770_5" x1="396.679" y1="441.83" x2="843.971" y2="441.83" gradientUnits="userSpaceOnUse">
<stop stop-color="#009AFF"/>
<stop offset="1" stop-color="white"/>
</linearGradient>
<linearGradient id="paint21_linear_770_5" x1="366.818" y1="1529.55" x2="3011.84" y2="1529.55" gradientUnits="userSpaceOnUse">
<stop stop-color="#361A31"/>
<stop offset="0.5134" stop-color="#3B1868"/>
<stop offset="1" stop-color="#1D0038"/>
</linearGradient>
<linearGradient id="paint22_linear_770_5" x1="403.965" y1="1530.76" x2="3048.96" y2="1530.76" gradientUnits="userSpaceOnUse">
<stop stop-color="#361A31"/>
<stop offset="0.5134" stop-color="#3B1868"/>
<stop offset="1" stop-color="#1D0038"/>
</linearGradient>
<linearGradient id="paint23_linear_770_5" x1="720.828" y1="499.876" x2="867.749" y2="8556.65" gradientUnits="userSpaceOnUse">
<stop stop-color="#A1BAFF"/>
<stop offset="0.4332" stop-color="white"/>
</linearGradient>
<linearGradient id="paint24_linear_770_5" x1="7555.41" y1="2260.76" x2="7493.23" y2="2048.23" gradientUnits="userSpaceOnUse">
<stop stop-color="#20A9FB"/>
<stop stop-color="#20A9FB"/>
<stop stop-color="#3690DA"/>
<stop stop-color="#2F98E4"/>
<stop stop-color="#28A0EF"/>
<stop stop-color="#3690DA"/>
<stop stop-color="#3690DA"/>
<stop stop-color="#625F99"/>
<stop stop-color="#655C95"/>
<stop stop-color="#896886"/>
<stop stop-color="#FF9355"/>
<stop offset="0.0001" stop-color="#FF9254"/>
<stop offset="0.0002" stop-color="#ED8C5C"/>
<stop offset="0.0003" stop-color="#B37774"/>
<stop offset="0.0004" stop-color="#6F5F91"/>
<stop offset="0.0005" stop-color="#FF6038"/>
</linearGradient>
<linearGradient id="paint25_linear_770_5" x1="3167.86" y1="1442.91" x2="3063.33" y2="1085.73" gradientUnits="userSpaceOnUse">
<stop stop-color="#1DACFF"/>
<stop offset="0.0001" stop-color="#1DACFF"/>
<stop offset="0.0002" stop-color="#20A9FB"/>
<stop offset="0.0003" stop-color="#28A0EF"/>
<stop offset="0.0004" stop-color="#3690DA"/>
<stop offset="0.0005" stop-color="#497BBE"/>
<stop offset="0.0006" stop-color="#6F5F91"/>
<stop offset="0.0007" stop-color="#896886"/>
<stop offset="0.0008" stop-color="#B37774"/>
<stop offset="0.0009" stop-color="#655C95"/>
<stop offset="0.001" stop-color="#78668F"/>
<stop offset="0.0011" stop-color="#625F99"/>
<stop offset="0.0012" stop-color="#FF9254"/>
<stop offset="0.0013" stop-color="#FF6038"/>
</linearGradient>
<linearGradient id="paint26_linear_770_5" x1="884.857" y1="-83.7497" x2="1308.57" y2="1658.21" gradientUnits="userSpaceOnUse">
<stop stop-color="#090000"/>
<stop offset="0.4332" stop-color="white"/>
<stop offset="1"/>
</linearGradient>
<linearGradient id="paint27_linear_770_5" x1="2098.99" y1="2282.05" x2="2812.79" y2="587.654" gradientUnits="userSpaceOnUse">
<stop stop-color="#270036"/>
<stop offset="0.5936" stop-color="#22003D"/>
<stop offset="1" stop-color="#272454"/>
</linearGradient>
<linearGradient id="paint28_linear_770_5" x1="3299.56" y1="1485.98" x2="5130.36" y2="11410.7" gradientUnits="userSpaceOnUse">
<stop stop-color="#311842"/>
<stop offset="0.4611" stop-color="#190C4B"/>
<stop offset="1" stop-color="#000054"/>
</linearGradient>
<linearGradient id="paint29_linear_770_5" x1="1446.95" y1="5345.03" x2="4547.96" y2="4054.56" gradientUnits="userSpaceOnUse">
<stop stop-color="#270036"/>
<stop offset="0.5936" stop-color="#4F008B"/>
<stop offset="1" stop-color="#4C24B1"/>
</linearGradient>
<linearGradient id="paint30_linear_770_5" x1="552.908" y1="3066.55" x2="9068.81" y2="3066.55" gradientUnits="userSpaceOnUse">
<stop stop-color="#311842"/>
<stop offset="0.4611" stop-color="#190C4B"/>
<stop offset="1" stop-color="#000054"/>
</linearGradient>
<linearGradient id="paint31_linear_770_5" x1="4362.58" y1="2260.65" x2="4199.87" y2="1566.39" gradientUnits="userSpaceOnUse">
<stop stop-color="#497BBE"/>
<stop stop-color="#625F99"/>
<stop stop-color="#655C95"/>
<stop stop-color="#6F5F91"/>
<stop stop-color="#F5F5F5"/>
<stop offset="0.0001" stop-color="#FF9254"/>
<stop offset="0.0002" stop-color="#ED8C5C"/>
<stop offset="0.0003" stop-color="#B37774"/>
<stop offset="0.0004" stop-color="#896886"/>
<stop offset="0.0005" stop-color="#497BBE"/>
<stop offset="0.0006" stop-color="#3690DA"/>
<stop offset="0.0007" stop-color="#28A0EF"/>
<stop offset="0.0008" stop-color="#FF6038"/>
</linearGradient>
<linearGradient id="paint32_linear_770_5" x1="1090.89" y1="429.59" x2="1588.56" y2="2388.98" gradientUnits="userSpaceOnUse">
<stop stop-color="#090000"/>
<stop offset="0.4332" stop-color="white"/>
<stop offset="1"/>
</linearGradient>
<linearGradient id="paint33_linear_770_5" x1="8554.78" y1="3227.71" x2="8462.46" y2="2889.11" gradientUnits="userSpaceOnUse">
<stop stop-color="#FF9254"/>
<stop stop-color="#FF9254"/>
<stop stop-color="#FF9254"/>
<stop stop-color="#FF9254"/>
<stop stop-color="#625F99"/>
<stop stop-color="#497BBE"/>
<stop stop-color="#497BBE"/>
<stop stop-color="#28A0EF"/>
<stop stop-color="#20A9FB"/>
<stop stop-color="#625F99"/>
<stop stop-color="#625F99"/>
<stop stop-color="#625F99"/>
<stop stop-color="#896886"/>
<stop stop-color="#ED8C5C"/>
<stop stop-color="#B37774"/>
<stop stop-color="#1DACFF"/>
<stop stop-color="#6F5F91"/>
<stop stop-color="#655C95"/>
<stop offset="0.0001" stop-color="#3690DA"/>
<stop offset="0.0002" stop-color="#FF6038"/>
</linearGradient>
<linearGradient id="paint34_linear_770_5" x1="3282.74" y1="2026.56" x2="3127.55" y2="1457.5" gradientUnits="userSpaceOnUse">
<stop stop-color="#1DACFF"/>
<stop offset="0.0001" stop-color="#20A9FB"/>
<stop offset="0.0002" stop-color="#28A0EF"/>
<stop offset="0.0003" stop-color="#3690DA"/>
<stop offset="0.0004" stop-color="#497BBE"/>
<stop offset="0.0005" stop-color="#6F5F91"/>
<stop offset="0.0006" stop-color="#896886"/>
<stop offset="0.0007" stop-color="#B37774"/>
<stop offset="0.0008" stop-color="#655C95"/>
<stop offset="0.0009" stop-color="#625F99"/>
<stop offset="0.001" stop-color="#FF9254"/>
<stop offset="0.0011" stop-color="#FF6038"/>
</linearGradient>
<linearGradient id="paint35_linear_770_5" x1="395.909" y1="353.198" x2="826.181" y2="1587.93" gradientUnits="userSpaceOnUse">
<stop stop-color="#090000"/>
<stop offset="0.4332" stop-color="white"/>
<stop offset="1"/>
</linearGradient>
<linearGradient id="paint36_linear_770_5" x1="5667.6" y1="2673.62" x2="742.356" y2="-736.201" gradientUnits="userSpaceOnUse">
<stop stop-color="#270036"/>
<stop offset="0.4866" stop-color="#22003D"/>
<stop offset="1" stop-color="#424577"/>
</linearGradient>
<linearGradient id="paint37_linear_770_5" x1="3623.48" y1="1644.13" x2="4908.68" y2="12096.3" gradientUnits="userSpaceOnUse">
<stop stop-color="#311842"/>
<stop offset="0.4611" stop-color="#190C4B"/>
<stop offset="1" stop-color="#000054"/>
</linearGradient>
<linearGradient id="paint38_linear_770_5" x1="2461.99" y1="5812.65" x2="1695.95" y2="5387.08" gradientUnits="userSpaceOnUse">
<stop stop-color="#270036"/>
<stop offset="0.5936" stop-color="#4F008B"/>
<stop offset="1" stop-color="#4C24B1"/>
</linearGradient>
<linearGradient id="paint39_linear_770_5" x1="11800.5" y1="2424.49" x2="-7.28189" y2="5314.51" gradientUnits="userSpaceOnUse">
<stop stop-color="#311842"/>
<stop offset="0.4611" stop-color="#190C4B"/>
<stop offset="1" stop-color="#000054"/>
</linearGradient>
<linearGradient id="paint40_linear_770_5" x1="4547.69" y1="2983.84" x2="4208.38" y2="1965.89" gradientUnits="userSpaceOnUse">
<stop stop-color="#625F99"/>
<stop stop-color="#ED8C5C"/>
<stop stop-color="#B37774"/>
<stop stop-color="#5271B1"/>
<stop stop-color="#497BBE"/>
<stop stop-color="#655C95"/>
<stop stop-color="#1DACFF"/>
<stop offset="0.0001" stop-color="#FF9254"/>
<stop offset="0.0002" stop-color="#6F5F91"/>
<stop offset="0.0003" stop-color="#7C7094"/>
<stop offset="0.0004" stop-color="#896886"/>
<stop offset="0.0005" stop-color="#28A0EF"/>
<stop offset="0.0006" stop-color="#20A9FB"/>
<stop offset="0.0007" stop-color="#FF6038"/>
</linearGradient>
<linearGradient id="paint41_linear_770_5" x1="468.602" y1="368.724" x2="1274.56" y2="2681.46" gradientUnits="userSpaceOnUse">
<stop stop-color="#1DACFF"/>
<stop offset="0.112" stop-color="#20A9FB"/>
<stop offset="0.2263" stop-color="#28A0EF"/>
<stop offset="0.3418" stop-color="#3690DA"/>
<stop offset="0.458" stop-color="#497BBE"/>
<stop offset="0.5737" stop-color="#625F99"/>
<stop offset="0.5853" stop-color="#655C95"/>
<stop offset="0.6367" stop-color="#6F5F91"/>
<stop offset="0.723" stop-color="#896886"/>
<stop offset="0.8336" stop-color="#B37774"/>
<stop offset="0.9628" stop-color="#ED8C5C"/>
<stop offset="1" stop-color="#FF9254"/>
</linearGradient>
<clipPath id="clip0_770_5">
<rect width="782" height="547" fill="white"/>
</clipPath>
</defs>
</svg>
