<svg width="1440" height="1024" viewBox="0 0 1440 1024" fill="none" xmlns="http://www.w3.org/2000/svg">
<g opacity="0.2" clip-path="url(#clip0_615_67)">
<rect width="1440" height="1024" fill="white"/>
<path d="M720 673V497.5H540V673H720Z" fill="#FF6038"/>
<path d="M360 1024H540V848.5H360V1024Z" fill="#FF6038"/>
<path d="M180 673V848.5H360V673H180Z" fill="#FF6038"/>
<path d="M1260 497.5V673H1440V497.5H1260Z" fill="#FF6038"/>
<path d="M1260 1024H1440V848.5H1260V1024Z" fill="#FF6038"/>
<path d="M720 1024H900V848.5H720V1024Z" fill="#5A31FC"/>
<path d="M1080 673V848.5H1260V673H1080Z" fill="#5A31FC"/>
<path d="M540 673V497.5H360V673H540Z" fill="#5A31FC"/>
<path d="M180 322H0V497.5H180V322Z" fill="#5A31FC"/>
<path d="M0 673V848.5H180V673H0Z" fill="#5A31FC"/>
<path d="M720 322H540V497.5H720V322Z" fill="#5A31FC"/>
<path d="M720 673H540V848.5H720V673Z" fill="#5A31FC"/>
<path d="M180 1024H360V848.5H180V1024Z" fill="#5A31FC"/>
<path d="M1080 497.5H900V673H1080V497.5Z" fill="#5A31FC"/>
<path d="M0 497.5V673H180V497.5H0Z" fill="#FF6038"/>
<path d="M900 322H720V497.5H900V322Z" fill="#FF6038"/>
<path d="M900 848.5V673H720V848.5H900Z" fill="#FF6038"/>
<path d="M900 1024H1080V848.5H900V1024Z" fill="#FF6038"/>
<path d="M0 322H180V165.5H0V322Z" fill="#FF6038"/>
<path d="M1260 322H1440V165.5H1260V322Z" fill="#FF6038"/>
<path fill-rule="evenodd" clip-rule="evenodd" d="M114.573 284.071V288.024C114.573 288.547 114.37 289.051 114.007 289.421C113.647 289.792 113.155 290 112.644 290H66.3583C65.8472 290 65.3554 289.792 64.9948 289.421C64.6322 289.051 64.4297 288.547 64.4297 288.024V284.071C64.4297 282.498 65.0391 280.991 66.1249 279.88C67.2088 278.767 68.6803 278.143 70.2154 278.143H108.787C110.322 278.143 111.793 278.767 112.877 279.88C113.963 280.991 114.573 282.498 114.573 284.071Z" fill="#5A31FC"/>
<path fill-rule="evenodd" clip-rule="evenodd" d="M74.0692 270.238H104.926C105.437 270.238 105.929 270.446 106.29 270.817C106.652 271.187 106.855 271.691 106.855 272.214V274.19H72.1406V272.214C72.1406 271.691 72.3431 271.187 72.7057 270.817C73.0663 270.446 73.5581 270.238 74.0692 270.238Z" fill="#5A31FC"/>
<path fill-rule="evenodd" clip-rule="evenodd" d="M58.6429 207H120.357C122.914 207 125.368 208.041 127.177 209.893C128.984 211.747 130 214.261 130 216.881C130 219.424 130 222.242 130 224.786C130 227.406 128.984 229.92 127.177 231.774C125.368 233.625 122.914 234.667 120.357 234.667H116.5C114.965 234.667 113.493 235.291 112.409 236.404C111.324 237.514 110.714 239.022 110.714 240.595C110.714 242.168 111.324 243.676 112.409 244.787C113.493 245.899 114.965 246.524 116.5 246.524H120.357C121.422 246.524 122.286 247.409 122.286 248.5C122.286 249.591 121.422 250.476 120.357 250.476C120.357 250.476 118.625 250.476 116.5 250.476C113.943 250.476 111.49 249.435 109.681 247.583C108.508 246.38 107.667 244.897 107.222 243.289C106.859 243.704 106.485 244.111 106.099 244.506C103.646 247.02 101.141 249.587 99.2219 251.553C96.6395 254.199 95.737 258.114 96.8922 261.663L98.3965 266.286H80.6035L82.1078 261.663C83.263 258.114 82.3605 254.199 79.7781 251.553L72.9008 244.506C72.5151 244.111 72.1409 243.704 71.7784 243.289C71.3329 244.897 70.492 246.38 69.3194 247.583C67.5104 249.435 65.0573 250.476 62.5 250.476C60.3747 250.476 58.6429 250.476 58.6429 250.476C57.5783 250.476 56.7143 249.591 56.7143 248.5C56.7143 247.409 57.5783 246.524 58.6429 246.524H62.5C64.0351 246.524 65.5066 245.899 66.5905 244.787C67.6763 243.676 68.2857 242.168 68.2857 240.595C68.2857 239.022 67.6763 237.514 66.5905 236.404C65.5066 235.291 64.0351 234.667 62.5 234.667H58.6429C56.0856 234.667 53.6324 233.625 51.8234 231.774C50.0163 229.92 49 227.406 49 224.786C49 222.242 49 219.424 49 216.881C49 214.261 50.0163 211.747 51.8234 209.893C53.6324 208.041 56.0856 207 58.6429 207ZM64.4286 210.952H58.6429C57.1077 210.952 55.6362 211.577 54.5524 212.689C53.4666 213.8 52.8571 215.308 52.8571 216.881V224.786C52.8571 226.359 53.4666 227.867 54.5524 228.977C55.6362 230.09 57.1077 230.714 58.6429 230.714H62.5C63.4932 230.714 64.471 230.872 65.4025 231.173C64.7622 228.706 64.4286 226.143 64.4286 223.547V210.952ZM114.571 210.952V223.547C114.571 226.143 114.238 228.706 113.597 231.173C114.529 230.872 115.507 230.714 116.5 230.714H120.357C121.892 230.714 123.364 230.09 124.448 228.977C125.533 227.867 126.143 226.359 126.143 224.786V216.881C126.143 215.308 125.533 213.8 124.448 212.689C123.364 211.577 121.892 210.952 120.357 210.952H114.571Z" fill="#5A31FC"/>
<path d="M97.7741 900.273V973H91.1335V907.233H90.7074L73.6619 918.561V911.672L90.8494 900.273H97.7741Z" fill="#FF6038"/>
<path d="M89.5178 796.994C84.4041 796.994 80.0362 795.527 76.4141 792.591C72.8156 789.632 70.0457 785.358 68.1044 779.771C66.1868 774.184 65.228 767.473 65.228 759.636C65.228 751.824 66.1868 745.136 68.1044 739.572C70.0457 733.985 72.8274 729.712 76.4496 726.753C80.0954 723.77 84.4515 722.278 89.5178 722.278C94.584 722.278 98.9283 723.77 102.55 726.753C106.196 729.712 108.978 733.985 110.896 739.572C112.837 745.136 113.808 751.824 113.808 759.636C113.808 767.473 112.837 774.184 110.896 779.771C108.978 785.358 106.208 789.632 102.586 792.591C98.9875 795.527 94.6314 796.994 89.5178 796.994ZM89.5178 791.028C95.1286 791.028 99.5083 788.294 102.657 782.825C105.806 777.333 107.38 769.603 107.38 759.636C107.38 753.008 106.658 747.349 105.214 742.662C103.793 737.951 101.746 734.352 99.0703 731.866C96.4188 729.381 93.2346 728.138 89.5178 728.138C83.9543 728.138 79.5864 730.908 76.4141 736.447C73.2417 741.964 71.6555 749.693 71.6555 759.636C71.6555 766.265 72.3658 771.923 73.7862 776.611C75.2304 781.298 77.2782 784.873 79.9297 787.335C82.6049 789.797 85.8009 791.028 89.5178 791.028Z" fill="#FFFCFC"/>
<path d="M97.7741 549.273V622H91.1335V556.233H90.7074L73.6619 567.561V560.672L90.8494 549.273H97.7741Z" fill="#5A31FC"/>
<path d="M89.5178 445.994C84.4041 445.994 80.0362 444.527 76.4141 441.591C72.8156 438.632 70.0457 434.358 68.1044 428.771C66.1868 423.184 65.228 416.473 65.228 408.636C65.228 400.824 66.1868 394.136 68.1044 388.572C70.0457 382.985 72.8274 378.712 76.4496 375.753C80.0954 372.77 84.4515 371.278 89.5178 371.278C94.584 371.278 98.9283 372.77 102.55 375.753C106.196 378.712 108.978 382.985 110.896 388.572C112.837 394.136 113.808 400.824 113.808 408.636C113.808 416.473 112.837 423.184 110.896 428.771C108.978 434.358 106.208 438.632 102.586 441.591C98.9875 444.527 94.6314 445.994 89.5178 445.994ZM89.5178 440.028C95.1286 440.028 99.5083 437.294 102.657 431.825C105.806 426.333 107.38 418.603 107.38 408.636C107.38 402.008 106.658 396.349 105.214 391.662C103.793 386.951 101.746 383.352 99.0703 380.866C96.4188 378.381 93.2346 377.138 89.5178 377.138C83.9543 377.138 79.5864 379.908 76.4141 385.447C73.2417 390.964 71.6555 398.693 71.6555 408.636C71.6555 415.265 72.3658 420.923 73.7862 425.611C75.2304 430.298 77.2782 433.873 79.9297 436.335C82.6049 438.797 85.8009 440.028 89.5178 440.028Z" fill="white"/>
<path d="M268.518 973.994C263.404 973.994 259.036 972.527 255.414 969.591C251.816 966.632 249.046 962.358 247.104 956.771C245.187 951.184 244.228 944.473 244.228 936.636C244.228 928.824 245.187 922.136 247.104 916.572C249.046 910.985 251.827 906.712 255.45 903.753C259.095 900.77 263.451 899.278 268.518 899.278C273.584 899.278 277.928 900.77 281.55 903.753C285.196 906.712 287.978 910.985 289.896 916.572C291.837 922.136 292.808 928.824 292.808 936.636C292.808 944.473 291.837 951.184 289.896 956.771C287.978 962.358 285.208 966.632 281.586 969.591C277.987 972.527 273.631 973.994 268.518 973.994ZM268.518 968.028C274.129 968.028 278.508 965.294 281.657 959.825C284.806 954.333 286.38 946.603 286.38 936.636C286.38 930.008 285.658 924.349 284.214 919.662C282.793 914.951 280.746 911.352 278.07 908.866C275.419 906.381 272.235 905.138 268.518 905.138C262.954 905.138 258.586 907.908 255.414 913.447C252.242 918.964 250.656 926.693 250.656 936.636C250.656 943.265 251.366 948.923 252.786 953.611C254.23 958.298 256.278 961.873 258.93 964.335C261.605 966.797 264.801 968.028 268.518 968.028Z" fill="white"/>
<path d="M276.774 723.273V796H270.134V730.233H269.707L252.662 741.561V734.672L269.849 723.273H276.774Z" fill="#5A31FC"/>
<path d="M268.518 622.994C263.404 622.994 259.036 621.527 255.414 618.591C251.816 615.632 249.046 611.358 247.104 605.771C245.187 600.184 244.228 593.473 244.228 585.636C244.228 577.824 245.187 571.136 247.104 565.572C249.046 559.985 251.827 555.712 255.45 552.753C259.095 549.77 263.451 548.278 268.518 548.278C273.584 548.278 277.928 549.77 281.55 552.753C285.196 555.712 287.978 559.985 289.896 565.572C291.837 571.136 292.808 577.824 292.808 585.636C292.808 593.473 291.837 600.184 289.896 605.771C287.978 611.358 285.208 615.632 281.586 618.591C277.987 621.527 273.631 622.994 268.518 622.994ZM268.518 617.028C274.129 617.028 278.508 614.294 281.657 608.825C284.806 603.333 286.38 595.603 286.38 585.636C286.38 579.008 285.658 573.349 284.214 568.662C282.793 563.951 280.746 560.352 278.07 557.866C275.419 555.381 272.235 554.138 268.518 554.138C262.954 554.138 258.586 556.908 255.414 562.447C252.242 567.964 250.656 575.693 250.656 585.636C250.656 592.265 251.366 597.923 252.786 602.611C254.23 607.298 256.278 610.873 258.93 613.335C261.605 615.797 264.801 617.028 268.518 617.028Z" fill="#5A31FC"/>
<path d="M276.774 372.273V445H270.134V379.233H269.707L252.662 390.561V383.672L269.849 372.273H276.774Z" fill="white"/>
<path d="M447.518 796.994C442.404 796.994 438.036 795.527 434.414 792.591C430.816 789.632 428.046 785.358 426.104 779.771C424.187 774.184 423.228 767.473 423.228 759.636C423.228 751.824 424.187 745.136 426.104 739.572C428.046 733.985 430.827 729.712 434.45 726.753C438.095 723.77 442.451 722.278 447.518 722.278C452.584 722.278 456.928 723.77 460.55 726.753C464.196 729.712 466.978 733.985 468.896 739.572C470.837 745.136 471.808 751.824 471.808 759.636C471.808 767.473 470.837 774.184 468.896 779.771C466.978 785.358 464.208 789.632 460.586 792.591C456.987 795.527 452.631 796.994 447.518 796.994ZM447.518 791.028C453.129 791.028 457.508 788.294 460.657 782.825C463.806 777.333 465.38 769.603 465.38 759.636C465.38 753.008 464.658 747.349 463.214 742.662C461.793 737.951 459.746 734.352 457.07 731.866C454.419 729.381 451.235 728.138 447.518 728.138C441.954 728.138 437.586 730.908 434.414 736.447C431.242 741.964 429.656 749.693 429.656 759.636C429.656 766.265 430.366 771.923 431.786 776.611C433.23 781.298 435.278 784.873 437.93 787.335C440.605 789.797 443.801 791.028 447.518 791.028Z" fill="#FF6038"/>
<path d="M447.518 445.994C442.404 445.994 438.036 444.527 434.414 441.591C430.816 438.632 428.046 434.358 426.104 428.771C424.187 423.184 423.228 416.473 423.228 408.636C423.228 400.824 424.187 394.136 426.104 388.572C428.046 382.985 430.827 378.712 434.45 375.753C438.095 372.77 442.451 371.278 447.518 371.278C452.584 371.278 456.928 372.77 460.55 375.753C464.196 378.712 466.978 382.985 468.896 388.572C470.837 394.136 471.808 400.824 471.808 408.636C471.808 416.473 470.837 423.184 468.896 428.771C466.978 434.358 464.208 438.632 460.586 441.591C456.987 444.527 452.631 445.994 447.518 445.994ZM447.518 440.028C453.129 440.028 457.508 437.294 460.657 431.825C463.806 426.333 465.38 418.603 465.38 408.636C465.38 402.008 464.658 396.349 463.214 391.662C461.793 386.951 459.746 383.352 457.07 380.866C454.419 378.381 451.235 377.138 447.518 377.138C441.954 377.138 437.586 379.908 434.414 385.447C431.242 390.964 429.656 398.693 429.656 408.636C429.656 415.265 430.366 420.923 431.786 425.611C433.23 430.298 435.278 433.873 437.93 436.335C440.605 438.797 443.801 440.028 447.518 440.028Z" fill="#5A31FC"/>
<path d="M638.774 723.273V796H632.134V730.233H631.707L614.662 741.561V734.672L631.849 723.273H638.774Z" fill="#FF6038"/>
<path d="M630.518 622.994C625.404 622.994 621.036 621.527 617.414 618.591C613.816 615.632 611.046 611.358 609.104 605.771C607.187 600.184 606.228 593.473 606.228 585.636C606.228 577.824 607.187 571.136 609.104 565.572C611.046 559.985 613.827 555.712 617.45 552.753C621.095 549.77 625.451 548.278 630.518 548.278C635.584 548.278 639.928 549.77 643.55 552.753C647.196 555.712 649.978 559.985 651.896 565.572C653.837 571.136 654.808 577.824 654.808 585.636C654.808 593.473 653.837 600.184 651.896 605.771C649.978 611.358 647.208 615.632 643.586 618.591C639.987 621.527 635.631 622.994 630.518 622.994ZM630.518 617.028C636.129 617.028 640.508 614.294 643.657 608.825C646.806 603.333 648.38 595.603 648.38 585.636C648.38 579.008 647.658 573.349 646.214 568.662C644.793 563.951 642.746 560.352 640.07 557.866C637.419 555.381 634.235 554.138 630.518 554.138C624.954 554.138 620.586 556.908 617.414 562.447C614.242 567.964 612.656 575.693 612.656 585.636C612.656 592.265 613.366 597.923 614.786 602.611C616.23 607.298 618.278 610.873 620.93 613.335C623.605 615.797 626.801 617.028 630.518 617.028Z" fill="white"/>
<path d="M638.774 372.273V445H632.134V379.233H631.707L614.662 390.561V383.672L631.849 372.273H638.774Z" fill="#FF6038"/>
<path d="M817.774 900.273V973H811.134V907.233H810.707L793.662 918.561V911.672L810.849 900.273H817.774Z" fill="#FF6038"/>
<path d="M809.518 796.994C804.404 796.994 800.036 795.527 796.414 792.591C792.816 789.632 790.046 785.358 788.104 779.771C786.187 774.184 785.228 767.473 785.228 759.636C785.228 751.824 786.187 745.136 788.104 739.572C790.046 733.985 792.827 729.712 796.45 726.753C800.095 723.77 804.451 722.278 809.518 722.278C814.584 722.278 818.928 723.77 822.55 726.753C826.196 729.712 828.978 733.985 830.896 739.572C832.837 745.136 833.808 751.824 833.808 759.636C833.808 767.473 832.837 774.184 830.896 779.771C828.978 785.358 826.208 789.632 822.586 792.591C818.987 795.527 814.631 796.994 809.518 796.994ZM809.518 791.028C815.129 791.028 819.508 788.294 822.657 782.825C825.806 777.333 827.38 769.603 827.38 759.636C827.38 753.008 826.658 747.349 825.214 742.662C823.793 737.951 821.746 734.352 819.07 731.866C816.419 729.381 813.235 728.138 809.518 728.138C803.954 728.138 799.586 730.908 796.414 736.447C793.242 741.964 791.656 749.693 791.656 759.636C791.656 766.265 792.366 771.923 793.786 776.611C795.23 781.298 797.278 784.873 799.93 787.335C802.605 789.797 805.801 791.028 809.518 791.028Z" fill="white"/>
<path d="M817.774 549.273V622H811.134V556.233H810.707L793.662 567.561V560.672L810.849 549.273H817.774Z" fill="#5A31FC"/>
<path d="M809.518 445.994C804.404 445.994 800.036 444.527 796.414 441.591C792.816 438.632 790.046 434.358 788.104 428.771C786.187 423.184 785.228 416.473 785.228 408.636C785.228 400.824 786.187 394.136 788.104 388.572C790.046 382.985 792.827 378.712 796.45 375.753C800.095 372.77 804.451 371.278 809.518 371.278C814.584 371.278 818.928 372.77 822.55 375.753C826.196 378.712 828.978 382.985 830.896 388.572C832.837 394.136 833.808 400.824 833.808 408.636C833.808 416.473 832.837 423.184 830.896 428.771C828.978 434.358 826.208 438.632 822.586 441.591C818.987 444.527 814.631 445.994 809.518 445.994ZM809.518 440.028C815.129 440.028 819.508 437.294 822.657 431.825C825.806 426.333 827.38 418.603 827.38 408.636C827.38 402.008 826.658 396.349 825.214 391.662C823.793 386.951 821.746 383.352 819.07 380.866C816.419 378.381 813.235 377.138 809.518 377.138C803.954 377.138 799.586 379.908 796.414 385.447C793.242 390.964 791.656 398.693 791.656 408.636C791.656 415.265 792.366 420.923 793.786 425.611C795.23 430.298 797.278 433.873 799.93 436.335C802.605 438.797 805.801 440.028 809.518 440.028Z" fill="white"/>
<path d="M988.518 973.994C983.404 973.994 979.036 972.527 975.414 969.591C971.816 966.632 969.046 962.358 967.104 956.771C965.187 951.184 964.228 944.473 964.228 936.636C964.228 928.824 965.187 922.136 967.104 916.572C969.046 910.985 971.827 906.712 975.45 903.753C979.095 900.77 983.451 899.278 988.518 899.278C993.584 899.278 997.928 900.77 1001.55 903.753C1005.2 906.712 1007.98 910.985 1009.9 916.572C1011.84 922.136 1012.81 928.824 1012.81 936.636C1012.81 944.473 1011.84 951.184 1009.9 956.771C1007.98 962.358 1005.21 966.632 1001.59 969.591C997.987 972.527 993.631 973.994 988.518 973.994ZM988.518 968.028C994.129 968.028 998.508 965.294 1001.66 959.825C1004.81 954.333 1006.38 946.603 1006.38 936.636C1006.38 930.008 1005.66 924.349 1004.21 919.662C1002.79 914.951 1000.75 911.352 998.07 908.866C995.419 906.381 992.235 905.138 988.518 905.138C982.954 905.138 978.586 907.908 975.414 913.447C972.242 918.964 970.656 926.693 970.656 936.636C970.656 943.265 971.366 948.923 972.786 953.611C974.23 958.298 976.278 961.873 978.93 964.335C981.605 966.797 984.801 968.028 988.518 968.028Z" fill="#FFFCFC"/>
<path d="M996.774 723.273V796H990.134V730.233H989.707L972.662 741.561V734.672L989.849 723.273H996.774Z" fill="#5A31FC"/>
<path d="M996.774 372.273V445H990.134V379.233H989.707L972.662 390.561V383.672L989.849 372.273H996.774Z" fill="#FF6038"/>
<path d="M1175.77 900.273V973H1169.13V907.233H1168.71L1151.66 918.561V911.672L1168.85 900.273H1175.77Z" fill="#5A31FC"/>
<path d="M1167.52 796.994C1162.4 796.994 1158.04 795.527 1154.41 792.591C1150.82 789.632 1148.05 785.358 1146.1 779.771C1144.19 774.184 1143.23 767.473 1143.23 759.636C1143.23 751.824 1144.19 745.136 1146.1 739.572C1148.05 733.985 1150.83 729.712 1154.45 726.753C1158.1 723.77 1162.45 722.278 1167.52 722.278C1172.58 722.278 1176.93 723.77 1180.55 726.753C1184.2 729.712 1186.98 733.985 1188.9 739.572C1190.84 745.136 1191.81 751.824 1191.81 759.636C1191.81 767.473 1190.84 774.184 1188.9 779.771C1186.98 785.358 1184.21 789.632 1180.59 792.591C1176.99 795.527 1172.63 796.994 1167.52 796.994ZM1167.52 791.028C1173.13 791.028 1177.51 788.294 1180.66 782.825C1183.81 777.333 1185.38 769.603 1185.38 759.636C1185.38 753.008 1184.66 747.349 1183.21 742.662C1181.79 737.951 1179.75 734.352 1177.07 731.866C1174.42 729.381 1171.23 728.138 1167.52 728.138C1161.95 728.138 1157.59 730.908 1154.41 736.447C1151.24 741.964 1149.66 749.693 1149.66 759.636C1149.66 766.265 1150.37 771.923 1151.79 776.611C1153.23 781.298 1155.28 784.873 1157.93 787.335C1160.6 789.797 1163.8 791.028 1167.52 791.028Z" fill="#FF6038"/>
<path d="M1175.77 549.273V622H1169.13V556.233H1168.71L1151.66 567.561V560.672L1168.85 549.273H1175.77Z" fill="#5A31FC"/>
<path d="M1167.52 445.994C1162.4 445.994 1158.04 444.527 1154.41 441.591C1150.82 438.632 1148.05 434.358 1146.1 428.771C1144.19 423.184 1143.23 416.473 1143.23 408.636C1143.23 400.824 1144.19 394.136 1146.1 388.572C1148.05 382.985 1150.83 378.712 1154.45 375.753C1158.1 372.77 1162.45 371.278 1167.52 371.278C1172.58 371.278 1176.93 372.77 1180.55 375.753C1184.2 378.712 1186.98 382.985 1188.9 388.572C1190.84 394.136 1191.81 400.824 1191.81 408.636C1191.81 416.473 1190.84 423.184 1188.9 428.771C1186.98 434.358 1184.21 438.632 1180.59 441.591C1176.99 444.527 1172.63 445.994 1167.52 445.994ZM1167.52 440.028C1173.13 440.028 1177.51 437.294 1180.66 431.825C1183.81 426.333 1185.38 418.603 1185.38 408.636C1185.38 402.008 1184.66 396.349 1183.21 391.662C1181.79 386.951 1179.75 383.352 1177.07 380.866C1174.42 378.381 1171.23 377.138 1167.52 377.138C1161.95 377.138 1157.59 379.908 1154.41 385.447C1151.24 390.964 1149.66 398.693 1149.66 408.636C1149.66 415.265 1150.37 420.923 1151.79 425.611C1153.23 430.298 1155.28 433.873 1157.93 436.335C1160.6 438.797 1163.8 440.028 1167.52 440.028Z" fill="white"/>
<path d="M1350.52 973.994C1345.4 973.994 1341.04 972.527 1337.41 969.591C1333.82 966.632 1331.05 962.358 1329.1 956.771C1327.19 951.184 1326.23 944.473 1326.23 936.636C1326.23 928.824 1327.19 922.136 1329.1 916.572C1331.05 910.985 1333.83 906.712 1337.45 903.753C1341.1 900.77 1345.45 899.278 1350.52 899.278C1355.58 899.278 1359.93 900.77 1363.55 903.753C1367.2 906.712 1369.98 910.985 1371.9 916.572C1373.84 922.136 1374.81 928.824 1374.81 936.636C1374.81 944.473 1373.84 951.184 1371.9 956.771C1369.98 962.358 1367.21 966.632 1363.59 969.591C1359.99 972.527 1355.63 973.994 1350.52 973.994ZM1350.52 968.028C1356.13 968.028 1360.51 965.294 1363.66 959.825C1366.81 954.333 1368.38 946.603 1368.38 936.636C1368.38 930.008 1367.66 924.349 1366.21 919.662C1364.79 914.951 1362.75 911.352 1360.07 908.866C1357.42 906.381 1354.23 905.138 1350.52 905.138C1344.95 905.138 1340.59 907.908 1337.41 913.447C1334.24 918.964 1332.66 926.693 1332.66 936.636C1332.66 943.265 1333.37 948.923 1334.79 953.611C1336.23 958.298 1338.28 961.873 1340.93 964.335C1343.6 966.797 1346.8 968.028 1350.52 968.028Z" fill="white"/>
<path d="M1358.77 723.273V796H1352.13V730.233H1351.71L1334.66 741.561V734.672L1351.85 723.273H1358.77Z" fill="#FF6038"/>
<path d="M1350.52 622.994C1345.4 622.994 1341.04 621.527 1337.41 618.591C1333.82 615.632 1331.05 611.358 1329.1 605.771C1327.19 600.184 1326.23 593.473 1326.23 585.636C1326.23 577.824 1327.19 571.136 1329.1 565.572C1331.05 559.985 1333.83 555.712 1337.45 552.753C1341.1 549.77 1345.45 548.278 1350.52 548.278C1355.58 548.278 1359.93 549.77 1363.55 552.753C1367.2 555.712 1369.98 559.985 1371.9 565.572C1373.84 571.136 1374.81 577.824 1374.81 585.636C1374.81 593.473 1373.84 600.184 1371.9 605.771C1369.98 611.358 1367.21 615.632 1363.59 618.591C1359.99 621.527 1355.63 622.994 1350.52 622.994ZM1350.52 617.028C1356.13 617.028 1360.51 614.294 1363.66 608.825C1366.81 603.333 1368.38 595.603 1368.38 585.636C1368.38 579.008 1367.66 573.349 1366.21 568.662C1364.79 563.951 1362.75 560.352 1360.07 557.866C1357.42 555.381 1354.23 554.138 1350.52 554.138C1344.95 554.138 1340.59 556.908 1337.41 562.447C1334.24 567.964 1332.66 575.693 1332.66 585.636C1332.66 592.265 1333.37 597.923 1334.79 602.611C1336.23 607.298 1338.28 610.873 1340.93 613.335C1343.6 615.797 1346.8 617.028 1350.52 617.028Z" fill="white"/>
<path d="M1358.77 372.273V445H1352.13V379.233H1351.71L1334.66 390.561V383.672L1351.85 372.273H1358.77Z" fill="#FF6038"/>
<path fill-rule="evenodd" clip-rule="evenodd" d="M946.013 583.888C945.295 585.629 943.501 586.865 941.403 586.865C938.673 586.865 936.457 584.774 936.457 582.198C936.457 579.623 938.673 577.533 941.403 577.533C943.501 577.533 945.295 578.768 946.013 580.51H959.65V561.144L950.414 552.429C948.601 553.181 946.406 552.858 944.921 551.458C942.992 549.637 942.992 546.679 944.921 544.859C946.852 543.037 949.985 543.037 951.916 544.859C953.399 546.258 953.743 548.33 952.944 550.041L962.52 559.076L986.248 549.486V539.767C984.403 539.089 983.092 537.395 983.092 535.415C983.092 532.84 985.308 530.75 988.038 530.75C990.767 530.75 992.983 532.84 992.983 535.415C992.983 537.395 991.674 539.089 989.827 539.767V549.49L1014.34 559.394L1024.25 550.041C1023.46 548.33 1023.8 546.258 1025.28 544.859C1027.21 543.037 1030.35 543.037 1032.28 544.859C1034.21 546.679 1034.21 549.637 1032.28 551.458C1030.79 552.858 1028.6 553.181 1026.78 552.429L1016.43 562.203V580.51H1030.84C1031.56 578.768 1033.35 577.533 1035.45 577.533C1038.18 577.533 1040.4 579.623 1040.4 582.198C1040.4 584.774 1038.18 586.865 1035.45 586.865C1033.35 586.865 1031.56 585.629 1030.84 583.888H1016.42C1016.3 590.846 1013.81 597.372 1009.64 602.706L1019.57 612.08C1021.39 611.328 1023.58 611.651 1025.07 613.052C1027 614.872 1027 617.829 1025.07 619.65C1023.14 621.471 1020 621.471 1018.07 619.65C1016.59 618.25 1016.24 616.178 1017.04 614.468L1007.36 605.33C1002.78 610.083 996.727 613.592 989.827 615.16V623.053C991.674 623.73 992.983 625.424 992.983 627.404C992.983 629.98 990.767 632.07 988.038 632.07C985.308 632.07 983.092 629.98 983.092 627.404C983.092 625.424 984.403 623.73 986.248 623.053V615.162C979.145 613.548 972.939 609.876 968.313 604.905L958.179 614.468C958.976 616.178 958.633 618.25 957.149 619.65C955.22 621.471 952.086 621.471 950.156 619.65C948.227 617.829 948.227 614.872 950.156 613.052C951.64 611.651 953.835 611.328 955.647 612.08L966.076 602.239C962.124 596.994 959.774 590.644 959.655 583.888H946.013ZM1000.37 571.928V568.586C1000.37 562.185 994.824 556.947 988.041 556.947C981.257 556.947 975.706 562.185 975.706 568.586V571.928H981.356V568.586C981.356 565.121 984.375 562.273 988.041 562.273C991.707 562.273 994.724 565.121 994.724 568.586V571.928H1000.37ZM972.943 575.304C971.7 575.304 970.687 576.261 970.687 577.428V600.075C970.687 601.248 971.7 602.199 972.943 602.199H1003.14C1004.38 602.199 1005.39 601.248 1005.39 600.075V577.428C1005.39 576.261 1004.38 575.304 1003.14 575.304H972.943ZM988.041 580.671C990.464 580.671 992.427 582.528 992.427 584.814C992.427 586.307 991.597 587.614 990.343 588.343V594.66C990.343 595.857 989.304 596.833 988.041 596.833C986.772 596.833 985.737 595.857 985.737 594.66V588.343C984.484 587.614 983.648 586.307 983.648 584.814C983.648 582.528 985.618 580.671 988.041 580.671Z" fill="#FF6038"/>
<path d="M1028.33 633.647C1027.27 630.401 1024.97 627.852 1022.03 626.657L1018.37 625.159C1017.85 624.947 1017.31 624.777 1016.77 624.657C1011.93 623.574 1006.88 626.218 1004.49 631.083L984.792 671.047L917.532 655.982L933.948 622.663C935.477 619.558 935.748 615.914 934.683 612.673C933.624 609.428 931.326 606.884 928.388 605.683L924.725 604.191C924.206 603.979 923.665 603.809 923.121 603.683C918.289 602.6 913.239 605.244 910.842 610.109L728.212 980.731C726.683 983.836 726.412 987.481 727.477 990.722C728.542 993.962 730.835 996.511 733.773 997.712L737.435 999.204C737.959 999.416 738.501 999.587 739.045 999.707C743.877 1000.79 748.927 998.146 751.324 993.281L777.22 940.725L844.481 955.79L821.859 1001.7C820.33 1004.8 820.059 1008.45 821.124 1011.69C822.183 1014.94 824.481 1017.48 827.419 1018.68L831.082 1020.17C831.606 1020.38 832.147 1020.56 832.692 1020.68C837.523 1021.76 842.574 1019.11 844.971 1014.25L1027.6 643.627C1029.12 640.532 1029.39 636.893 1028.33 633.647ZM834.038 1014.38C833.783 1014.32 833.527 1014.24 833.275 1014.14L829.613 1012.64C826.698 1011.45 825.47 1007.7 826.985 1004.62L850.39 957.123L856.255 945.217L877.278 902.557L883.143 890.651L904.166 847.986L910.032 836.08L931.054 793.421L936.92 781.515L957.942 738.856L963.808 726.95L984.831 684.285L990.696 672.379L1009.6 634.008C1010.75 631.671 1013.14 630.467 1015.4 630.974C1015.66 631.028 1015.91 631.111 1016.16 631.215L1019.83 632.708C1022.74 633.899 1023.97 637.651 1022.45 640.73L839.832 1011.34C838.684 1013.67 836.295 1014.88 834.038 1014.38ZM931.015 780.183L863.755 765.118L884.777 722.459L952.038 737.524L931.015 780.183ZM925.145 792.088L904.123 834.748L836.862 819.683L857.885 777.023L925.145 792.088ZM898.256 846.659L877.233 889.324L809.973 874.259L830.996 831.594L898.256 846.659ZM978.927 682.953L957.903 725.618L890.643 710.553L911.666 667.888L978.927 682.953ZM746.192 990.37C745.042 992.706 742.654 993.911 740.393 993.404C740.137 993.35 739.881 993.267 739.629 993.162L735.967 991.67C733.053 990.479 731.825 986.727 733.339 983.647L915.969 613.025C917.118 610.688 919.506 609.484 921.767 609.99C922.023 610.045 922.279 610.128 922.531 610.232L926.193 611.724C929.107 612.916 930.335 616.668 928.821 619.747L911.622 654.655L905.333 653.247C902.184 652.539 899.027 654.795 898.284 658.28C897.536 661.765 899.486 665.162 902.636 665.864L905.756 666.561L884.733 709.226L878.238 707.771C875.089 707.064 871.933 709.319 871.19 712.805C870.441 716.29 872.392 719.686 875.541 720.388L878.867 721.132L857.845 763.791L851.144 762.29C847.996 761.583 844.839 763.838 844.096 767.324C843.348 770.809 845.298 774.205 848.447 774.908L851.984 775.698L830.962 818.357L824.05 816.81C820.902 816.102 817.745 818.358 817.002 821.843C816.254 825.328 818.204 828.724 821.354 829.427L825.097 830.263L804.073 872.928L796.956 871.334C793.807 870.627 790.65 872.882 789.907 876.368C789.164 879.854 791.109 883.249 794.259 883.951L798.208 884.834L777.185 927.493L769.862 925.853C766.713 925.146 763.556 927.401 762.813 930.887C762.07 934.373 764.015 937.768 767.165 938.47L771.325 939.4L746.192 990.37ZM783.084 928.83L804.106 886.17L871.367 901.235L850.344 943.895L783.084 928.83Z" fill="black"/>
<path d="M571.059 1006.38C577.116 1008.72 582.819 1008.71 586.694 1006.37L591.535 1003.47C592.221 1003.05 592.852 1002.57 593.403 1002.02C598.312 997.171 597.192 987.835 590.683 979.32L537.216 909.367L605.548 841.891L650.126 900.206C654.281 905.64 660.141 910.103 666.194 912.43C672.251 914.77 677.945 914.759 681.828 912.426L686.662 909.512C687.347 909.099 687.978 908.611 688.538 908.07C693.447 903.224 692.327 893.887 685.818 885.372L189.963 236.669C185.808 231.236 179.948 226.773 173.895 224.446C167.842 222.118 162.144 222.116 158.261 224.45L153.428 227.364C152.738 227.782 152.106 228.269 151.555 228.818C146.646 233.664 147.766 243.001 154.275 251.516L224.591 343.503L156.26 410.979L94.8365 330.624C90.6813 325.191 84.8217 320.728 78.7689 318.401C72.7121 316.061 67.0178 316.071 63.1345 318.405L58.3011 321.319C57.6112 321.737 56.9797 322.224 56.429 322.773C51.5197 327.619 52.6394 336.956 59.1486 345.471L555.004 994.174C559.147 999.587 564.998 1004.04 571.059 1006.38ZM65.9877 331.588C66.2428 331.329 66.5447 331.101 66.8806 330.902L71.7139 327.988C75.5659 325.674 82.5706 328.375 86.6926 333.761L150.242 416.897L166.171 437.735L223.244 512.403L239.174 533.241L296.256 607.917L312.186 628.754L369.258 703.423L385.188 724.26L442.261 798.929L458.191 819.766L515.273 894.442L531.203 915.28L582.54 982.438C585.668 986.526 586.122 990.889 583.824 993.157C583.569 993.417 583.267 993.645 582.931 993.843L578.098 996.757C574.246 999.072 567.241 996.371 563.119 990.985L67.2762 342.302C64.1568 338.222 63.6946 333.851 65.9877 331.588ZM391.202 718.348L459.533 650.871L516.606 725.54L448.275 793.016L391.202 718.348ZM375.277 697.505L318.204 622.836L386.535 555.36L443.608 630.028L375.277 697.505ZM302.266 601.991L245.184 527.316L313.515 459.839L370.597 534.515L302.266 601.991ZM521.286 888.529L464.205 813.854L532.536 746.377L589.618 821.053L521.286 888.529ZM162.407 248.359C159.279 244.272 158.825 239.909 161.123 237.641C161.378 237.381 161.68 237.153 162.015 236.955L166.849 234.041C170.701 231.726 177.705 234.427 181.827 239.813L677.683 888.516C680.811 892.604 681.264 896.967 678.967 899.235C678.712 899.494 678.41 899.722 678.074 899.921L673.24 902.835C669.388 905.15 662.384 902.448 658.262 897.062L611.558 835.965L617.946 829.656C621.149 826.5 619.45 819.982 614.158 815.105C608.87 810.224 601.989 808.832 598.795 811.996L595.628 815.128L538.546 740.452L545.144 733.936C548.347 730.78 546.648 724.262 541.356 719.385C536.068 714.504 529.187 713.112 525.993 716.276L522.616 719.614L465.543 644.946L472.35 638.223C475.553 635.067 473.855 628.549 468.562 623.673C463.275 618.791 456.393 617.4 453.199 620.563L449.609 624.114L392.536 549.445L399.557 542.511C402.76 539.355 401.061 532.837 395.769 527.96C390.481 523.078 383.6 521.687 380.406 524.851L376.606 528.608L319.525 453.932L326.755 446.791C329.958 443.635 328.259 437.117 322.967 432.24C317.675 427.363 310.798 425.967 307.604 429.13L303.595 433.094L246.522 358.426L253.961 351.078C257.164 347.922 255.466 341.404 250.173 336.527C244.881 331.651 238.004 330.254 234.81 333.418L230.587 337.594L162.407 248.359ZM240.504 364.326L297.577 438.994L229.246 506.471L172.173 431.802L240.504 364.326Z" fill="black"/>
<ellipse cx="631.32" cy="932.431" rx="43.0938" ry="44.0618" fill="#6423FF"/>
<path d="M651.115 956.665H615.339C613.239 956.665 612.175 954.795 611.968 952.65C611.917 952.121 611.917 951.576 611.968 951.038V908.748H651.115V946.379V956.665Z" fill="#6423FF"/>
<path d="M651.115 946.379C651.115 931.683 651.115 923.444 651.115 908.748H611.968V952.65M651.115 946.379V956.665C651.115 956.665 620.266 956.665 615.339 956.665C613.239 956.665 612.175 954.795 611.968 952.65M651.115 946.379C651.115 946.379 619.488 946.379 615.339 946.379C612.96 946.379 611.689 949.764 611.968 952.65M648.002 951.397H615.339M636.596 916.776L626.745 937.599" stroke="white" stroke-linecap="round"/>
<path d="M625.185 922.044L620 927.061L625.185 932.33" stroke="white" stroke-linecap="round"/>
<path d="M638.663 932.329L643.848 927.312L638.663 922.043" stroke="white" stroke-linecap="round"/>
</g>
<defs>
<clipPath id="clip0_615_67">
<rect width="1440" height="1024" fill="white"/>
</clipPath>
</defs>
</svg>